<svg xmlns="http://www.w3.org/2000/svg" xmlns:xlink="http://www.w3.org/1999/xlink" width="220" zoomAndPan="magnify" viewBox="0 0 165 165.000002" height="220" preserveAspectRatio="xMidYMid meet" version="1.0"><defs><clipPath id="26daf02d26"><path d="M 77 23.144531 L 103 23.144531 L 103 125 L 77 125 Z M 77 23.144531 " clip-rule="nonzero"/></clipPath><clipPath id="b70e57b3b3"><path d="M 22.222656 61 L 78 61 L 78 117 L 22.222656 117 Z M 22.222656 61 " clip-rule="nonzero"/></clipPath><clipPath id="1e7e5eae72"><path d="M 25 93 L 86 93 L 86 134.964844 L 25 134.964844 Z M 25 93 " clip-rule="nonzero"/></clipPath></defs><path fill="#333333" d="M 132.886719 118.480469 L 130.875 121.238281 L 129.46875 122.0625 C 128.453125 122.539062 127.871094 123.570312 128.039062 124.59375 L 128.121094 125.074219 L 139.445312 122.109375 L 138.121094 117.105469 Z M 132.886719 118.480469 " fill-opacity="1" fill-rule="nonzero"/><path fill="#d53e6a" d="M 121.117188 85.488281 C 121.117188 85.488281 127.632812 106.039062 131.457031 118.863281 L 139.039062 116.839844 L 133.554688 80.71875 Z M 121.117188 85.488281 " fill-opacity="1" fill-rule="nonzero"/><path fill="#333333" d="M 114.058594 118.695312 L 111.554688 121.019531 L 110.019531 121.5625 C 108.929688 121.835938 108.160156 122.738281 108.132812 123.777344 L 108.117188 124.261719 L 119.800781 123.496094 L 119.460938 118.332031 Z M 114.058594 118.695312 " fill-opacity="1" fill-rule="nonzero"/><path fill="#d53e6a" d="M 113.277344 83.324219 C 113.277344 83.324219 112.417969 105.742188 112.578125 118.796875 L 120.410156 118.25 L 124.449219 83.324219 Z M 113.277344 83.324219 " fill-opacity="1" fill-rule="nonzero"/><path fill="#f7baaf" d="M 111.117188 69.242188 C 107.652344 67.640625 97.050781 60.992188 97.050781 60.992188 L 98.855469 58.753906 L 113.644531 63.78125 C 115.707031 64.515625 116.476562 66.796875 115.195312 68.371094 C 114.269531 69.507812 112.546875 69.902344 111.117188 69.242188 Z M 111.117188 69.242188 " fill-opacity="1" fill-rule="nonzero"/><path fill="#f7baaf" d="M 115.234375 64.6875 L 115.65625 65.5 C 116.523438 67.171875 115.558594 69.105469 113.617188 69.589844 C 112.105469 69.964844 110.484375 69.320312 109.730469 68.050781 L 108.4375 65.863281 Z M 115.234375 64.6875 " fill-opacity="1" fill-rule="nonzero"/><path fill="#333333" d="M 97.609375 56.527344 C 98.25 56.941406 99.058594 58.019531 99.253906 58.472656 C 99.714844 59.542969 98.488281 61.785156 96.765625 61.726562 C 95.890625 61.699219 95.042969 61.386719 94.234375 61.0625 C 93.3125 60.699219 91.566406 59.808594 91.753906 59.339844 C 91.910156 58.949219 93.59375 59.617188 93.59375 59.617188 C 93.59375 59.617188 91.414062 58.726562 91.792969 58.222656 C 92.035156 57.898438 93.910156 58.714844 93.910156 58.714844 C 93.910156 58.714844 91.664062 57.746094 92.121094 57.117188 C 92.359375 56.789062 94.617188 57.957031 94.617188 57.957031 C 94.617188 57.957031 92.488281 56.9375 93.007812 56.359375 C 93.429688 55.890625 95.714844 57.410156 95.90625 57.003906 C 96.101562 56.597656 95.542969 56.410156 95.316406 56.183594 C 95.152344 56.023438 95.058594 55.804688 95.296875 55.652344 C 95.519531 55.511719 95.839844 55.589844 96.066406 55.675781 C 96.621094 55.890625 97.121094 56.210938 97.609375 56.527344 Z M 97.609375 56.527344 " fill-opacity="1" fill-rule="nonzero"/><path fill="#333333" d="M 95.253906 58.367188 C 95.15625 58.332031 95.03125 58.304688 94.964844 58.222656 L 94.984375 58.191406 C 95.09375 58.191406 95.195312 58.269531 95.28125 58.324219 C 95.316406 58.339844 95.289062 58.382812 95.253906 58.367188 Z M 95.253906 58.367188 " fill-opacity="1" fill-rule="nonzero"/><path fill="#333333" d="M 94.425781 59.183594 C 94.351562 59.148438 94.285156 59.109375 94.246094 59.039062 L 94.273438 59.015625 C 94.335938 59.050781 94.390625 59.097656 94.457031 59.132812 C 94.492188 59.15625 94.464844 59.203125 94.425781 59.183594 Z M 94.425781 59.183594 " fill-opacity="1" fill-rule="nonzero"/><path fill="#333333" d="M 94.074219 60.035156 C 93.9375 59.992188 93.773438 59.921875 93.703125 59.796875 C 93.6875 59.765625 93.722656 59.714844 93.765625 59.742188 C 93.882812 59.816406 93.972656 59.910156 94.101562 59.972656 C 94.140625 59.992188 94.117188 60.046875 94.074219 60.035156 Z M 94.074219 60.035156 " fill-opacity="1" fill-rule="nonzero"/><path fill="#d53e6a" d="M 121.058594 55.730469 C 121.371094 53.902344 120.257812 52.253906 118.574219 52.042969 C 117.355469 51.894531 116.175781 52.542969 115.496094 53.605469 L 115.492188 53.605469 C 115.492188 53.605469 115.472656 53.640625 115.433594 53.703125 C 115.429688 53.710938 115.421875 53.722656 115.417969 53.730469 C 114.960938 54.488281 114.003906 57.636719 111.550781 62.941406 C 111.550781 62.941406 114.273438 64.042969 114.972656 64.867188 C 115.613281 65.621094 115.738281 67.871094 115.738281 67.871094 L 120.644531 56.898438 C 120.839844 56.546875 120.984375 56.152344 121.058594 55.730469 Z M 121.058594 55.730469 " fill-opacity="1" fill-rule="nonzero"/><path fill="#d53e6a" d="M 122.265625 49.355469 C 124.34375 49.355469 130.789062 50.757812 131.527344 53.804688 C 132.074219 56.042969 132.433594 61.027344 132.601562 66.3125 C 132.957031 77.730469 134.703125 87.605469 134.703125 87.605469 C 128.125 92.382812 121.320312 94.84375 113.683594 92.46875 C 112.976562 90.085938 113.34375 79.203125 113.683594 67.785156 C 113.84375 62.5 115.199219 57.484375 115.730469 55.242188 C 116.441406 52.246094 120.203125 49.359375 122.265625 49.355469 Z M 122.265625 49.355469 " fill-opacity="1" fill-rule="nonzero"/><path fill="#333333" d="M 113.238281 86.246094 C 113.167969 86.21875 113.132812 86.148438 113.160156 86.078125 C 113.183594 86.011719 113.261719 85.980469 113.328125 86.003906 C 113.328125 86.003906 116.445312 87.144531 119.878906 87.847656 C 122.152344 88.316406 124.5625 88.59375 126.28125 88.214844 C 127.988281 87.835938 129.492188 86.554688 130.675781 85.160156 C 132.476562 83.046875 133.5625 80.664062 133.5625 80.664062 C 133.589844 80.601562 133.667969 80.570312 133.730469 80.601562 C 133.796875 80.628906 133.824219 80.707031 133.796875 80.773438 C 133.796875 80.773438 132.699219 83.183594 130.875 85.324219 C 129.648438 86.765625 128.101562 88.074219 126.335938 88.464844 C 124.585938 88.855469 122.136719 88.578125 119.824219 88.101562 C 116.375 87.390625 113.238281 86.246094 113.238281 86.246094 Z M 113.238281 86.246094 " fill-opacity="1" fill-rule="evenodd"/><path fill="#b99b91" d="M 120.632812 67.957031 L 112.8125 73.480469 L 91.746094 73.480469 L 91.746094 71.273438 L 101.144531 65.914062 L 120.632812 65.914062 Z M 120.632812 67.957031 " fill-opacity="1" fill-rule="evenodd"/><path fill="#ffffff" d="M 97.199219 63.960938 L 102.746094 63.960938 L 101.359375 69.695312 L 98.585938 69.695312 Z M 97.199219 63.960938 " fill-opacity="1" fill-rule="evenodd"/><path fill="#ffffff" d="M 104.175781 63.960938 L 109.71875 63.960938 L 108.332031 69.695312 L 105.5625 69.695312 Z M 104.175781 63.960938 " fill-opacity="1" fill-rule="evenodd"/><path fill="#ffffff" d="M 111.148438 63.960938 L 116.695312 63.960938 L 115.304688 69.695312 L 112.535156 69.695312 Z M 111.148438 63.960938 " fill-opacity="1" fill-rule="evenodd"/><path fill="#f7baaf" d="M 131.5625 71.066406 C 127.804688 71.757812 115.292969 72.4375 115.292969 72.4375 L 115.464844 69.574219 L 130.449219 65.15625 C 132.558594 64.570312 134.511719 65.988281 134.378906 68.007812 C 134.285156 69.46875 133.109375 70.78125 131.5625 71.066406 Z M 131.5625 71.066406 " fill-opacity="1" fill-rule="nonzero"/><path fill="#f7baaf" d="M 132.273438 64.980469 L 133.089844 65.402344 C 134.769531 66.269531 135.105469 68.402344 133.800781 69.910156 C 132.789062 71.085938 131.089844 71.5 129.738281 70.894531 L 127.414062 69.855469 Z M 132.273438 64.980469 " fill-opacity="1" fill-rule="nonzero"/><path fill="#333333" d="M 113.152344 68.472656 C 113.917969 68.445312 115.203125 68.855469 115.628906 69.113281 C 116.625 69.722656 116.925781 72.253906 115.488281 73.203125 C 114.757812 73.683594 113.882812 73.917969 113.035156 74.121094 C 112.070312 74.351562 110.132812 74.632812 110.011719 74.140625 C 109.914062 73.734375 111.671875 73.308594 111.671875 73.308594 C 111.671875 73.308594 109.378906 73.835938 109.394531 73.207031 C 109.40625 72.800781 111.40625 72.386719 111.40625 72.386719 C 111.40625 72.386719 109.011719 72.894531 109.019531 72.117188 C 109.023438 71.710938 111.546875 71.367188 111.546875 71.367188 C 111.546875 71.367188 109.214844 71.757812 109.304688 70.988281 C 109.375 70.359375 112.121094 70.285156 112.042969 69.84375 C 111.96875 69.402344 111.398438 69.566406 111.082031 69.515625 C 110.859375 69.476562 110.65625 69.355469 110.761719 69.09375 C 110.859375 68.847656 111.164062 68.726562 111.402344 68.667969 C 111.980469 68.527344 112.570312 68.496094 113.152344 68.472656 Z M 113.152344 68.472656 " fill-opacity="1" fill-rule="nonzero"/><path fill="#333333" d="M 112.304688 71.332031 C 112.203125 71.359375 112.082031 71.410156 111.984375 71.382812 L 111.980469 71.34375 C 112.070312 71.28125 112.195312 71.289062 112.300781 71.277344 C 112.339844 71.277344 112.339844 71.324219 112.304688 71.332031 Z M 112.304688 71.332031 " fill-opacity="1" fill-rule="nonzero"/><path fill="#333333" d="M 112.101562 72.476562 C 112.019531 72.488281 111.945312 72.496094 111.871094 72.460938 L 111.878906 72.425781 C 111.953125 72.417969 112.023438 72.425781 112.097656 72.417969 C 112.136719 72.414062 112.144531 72.46875 112.101562 72.476562 Z M 112.101562 72.476562 " fill-opacity="1" fill-rule="nonzero"/><path fill="#333333" d="M 112.308594 73.371094 C 112.175781 73.417969 111.996094 73.453125 111.871094 73.390625 C 111.835938 73.375 111.835938 73.3125 111.886719 73.3125 C 112.027344 73.304688 112.152344 73.332031 112.296875 73.304688 C 112.335938 73.300781 112.351562 73.359375 112.308594 73.371094 Z M 112.308594 73.371094 " fill-opacity="1" fill-rule="nonzero"/><path fill="#d53e6a" d="M 131.820312 54.324219 C 131.011719 52.652344 129.148438 51.945312 127.652344 52.746094 C 126.574219 53.324219 125.984375 54.535156 126.050781 55.792969 L 126.046875 55.792969 C 126.046875 55.792969 126.046875 55.832031 126.054688 55.90625 C 126.054688 55.917969 126.054688 55.929688 126.058594 55.9375 C 126.128906 56.820312 127.175781 59.941406 128.253906 65.679688 C 128.253906 65.679688 131.117188 65.011719 132.164062 65.277344 C 133.125 65.527344 134.535156 67.292969 134.535156 67.292969 L 132.164062 55.515625 C 132.117188 55.113281 132.007812 54.710938 131.820312 54.324219 Z M 131.820312 54.324219 " fill-opacity="1" fill-rule="nonzero"/><path fill="#333333" d="M 126.386719 57.953125 C 126.371094 57.882812 126.414062 57.816406 126.480469 57.800781 C 126.550781 57.785156 126.617188 57.828125 126.632812 57.894531 L 128.382812 65.652344 C 128.398438 65.722656 128.355469 65.789062 128.285156 65.804688 C 128.21875 65.820312 128.152344 65.777344 128.132812 65.707031 Z M 126.386719 57.953125 " fill-opacity="1" fill-rule="evenodd"/><path fill="#f7baaf" d="M 120.09375 50.964844 C 120.152344 51.527344 121.359375 55.242188 121.359375 55.242188 C 121.359375 55.242188 124.375 51.058594 124.316406 50.507812 L 123.984375 47.476562 L 119.757812 47.933594 Z M 120.09375 50.964844 " fill-opacity="1" fill-rule="nonzero"/><path fill="#333333" d="M 127.917969 40.476562 C 127.136719 44.164062 123.496094 46.519531 119.792969 45.742188 C 116.085938 44.960938 113.71875 41.339844 114.503906 37.652344 C 114.734375 36.554688 113.765625 33.613281 114.808594 33.722656 C 116.023438 33.847656 120.628906 32.234375 123.230469 32.453125 C 128.066406 32.863281 128.703125 36.785156 127.917969 40.476562 Z M 127.917969 40.476562 " fill-opacity="1" fill-rule="nonzero"/><path fill="#f7baaf" d="M 126.878906 41.265625 C 126.878906 41.265625 127.386719 40.296875 128.625 40.65625 C 129.859375 41.015625 129.546875 43.957031 127.777344 44.46875 C 127.777344 44.46875 127.011719 44.644531 126.46875 44.246094 C 126.46875 44.246094 126.875 42.082031 126.878906 41.265625 Z M 126.878906 41.265625 " fill-opacity="1" fill-rule="nonzero"/><path fill="#333333" d="M 127.554688 42.183594 C 127.640625 42.09375 127.726562 42.023438 127.8125 41.972656 C 128.152344 41.765625 128.449219 41.835938 128.449219 41.835938 C 128.5 41.847656 128.546875 41.820312 128.558594 41.773438 C 128.570312 41.722656 128.539062 41.675781 128.492188 41.664062 C 128.492188 41.664062 128.132812 41.570312 127.71875 41.820312 C 127.457031 41.980469 127.167969 42.28125 126.945312 42.847656 C 126.929688 42.894531 126.949219 42.945312 126.996094 42.964844 C 127.042969 42.980469 127.09375 42.957031 127.113281 42.914062 C 127.210938 42.664062 127.320312 42.46875 127.433594 42.320312 C 127.5625 42.386719 127.847656 42.566406 127.917969 42.855469 C 127.957031 43.015625 127.921875 43.203125 127.769531 43.421875 C 127.742188 43.464844 127.75 43.519531 127.792969 43.546875 C 127.832031 43.574219 127.886719 43.566406 127.914062 43.523438 C 128.109375 43.25 128.136719 43.011719 128.089844 42.816406 C 128.015625 42.492188 127.714844 42.277344 127.554688 42.183594 Z M 127.554688 42.183594 " fill-opacity="1" fill-rule="evenodd"/><path fill="#f7baaf" d="M 114.796875 39.515625 C 114.921875 41.097656 115.328125 44.078125 116.523438 45.960938 C 117.648438 47.726562 119.347656 48.589844 121.472656 48.484375 C 123.601562 48.375 125.121094 47.488281 126.199219 44.996094 C 127.277344 42.503906 126.902344 38.59375 126.902344 38.59375 C 126.902344 38.59375 126.453125 32.945312 120.46875 33.414062 C 114.164062 33.910156 114.796875 39.515625 114.796875 39.515625 Z M 114.796875 39.515625 " fill-opacity="1" fill-rule="nonzero"/><path fill="#333333" d="M 122.515625 48.273438 C 122.59375 48.246094 122.632812 48.164062 122.605469 48.089844 C 122.578125 48.015625 122.5 47.976562 122.421875 48.003906 C 122.421875 48.003906 121.132812 48.445312 119.824219 48.203125 C 119.746094 48.1875 119.671875 48.242188 119.65625 48.316406 C 119.644531 48.394531 119.695312 48.46875 119.769531 48.484375 C 121.15625 48.742188 122.515625 48.273438 122.515625 48.273438 Z M 122.515625 48.273438 " fill-opacity="1" fill-rule="evenodd"/><path fill="#333333" d="M 120.730469 45.3125 C 120.636719 45.324219 120.570312 45.402344 120.582031 45.492188 C 120.589844 45.582031 120.667969 45.648438 120.761719 45.640625 C 120.761719 45.640625 121.648438 45.550781 122.167969 44.964844 C 122.230469 44.894531 122.222656 44.792969 122.15625 44.730469 C 122.085938 44.671875 121.980469 44.679688 121.921875 44.746094 C 121.480469 45.242188 120.730469 45.3125 120.730469 45.3125 Z M 120.730469 45.3125 " fill-opacity="1" fill-rule="evenodd"/><path fill="#333333" d="M 120.488281 42.09375 C 120.480469 42 120.40625 41.933594 120.316406 41.933594 C 120.222656 41.933594 120.152344 42.015625 120.152344 42.105469 C 120.152344 42.105469 120.175781 42.84375 120.175781 42.84375 C 120.097656 42.847656 120.007812 42.871094 119.925781 42.921875 C 119.796875 43.003906 119.671875 43.164062 119.664062 43.488281 C 119.660156 43.726562 119.734375 43.878906 119.828125 43.972656 C 120.042969 44.214844 120.417969 44.148438 120.417969 44.148438 C 120.507812 44.128906 120.566406 44.046875 120.546875 43.953125 C 120.53125 43.863281 120.445312 43.804688 120.355469 43.824219 C 120.355469 43.824219 120.175781 43.863281 120.070312 43.75 C 120.023438 43.699219 119.996094 43.617188 120 43.492188 C 120 43.332031 120.042969 43.242188 120.105469 43.199219 C 120.195312 43.144531 120.304688 43.175781 120.304688 43.175781 C 120.355469 43.191406 120.414062 43.175781 120.453125 43.144531 C 120.492188 43.109375 120.515625 43.0625 120.515625 43.007812 Z M 120.488281 42.09375 " fill-opacity="1" fill-rule="evenodd"/><path fill="#333333" d="M 117.496094 34.121094 C 118.566406 33.703125 119.445312 33.25 120.351562 33.191406 C 121.257812 33.105469 122.195312 33.414062 123.320312 33.664062 C 126.921875 34.460938 127.476562 38.625 127.507812 40.617188 L 126.898438 41.882812 L 126.269531 39.109375 C 124.710938 39.058594 120.734375 38.71875 118.613281 36.609375 C 117.933594 37.914062 116.875 39.453125 115.433594 40.15625 L 115.261719 42.800781 L 114.753906 41.058594 C 114.539062 39.078125 114.042969 35.472656 117.496094 34.121094 Z M 117.496094 34.121094 " fill-opacity="1" fill-rule="nonzero"/><g clip-path="url(#26daf02d26)"><path fill="#333333" d="M 88.28125 26.183594 L 88.28125 121.230469 L 77.109375 121.230469 L 77.109375 124.265625 L 102.503906 124.265625 L 102.503906 121.230469 L 89.804688 121.230469 L 89.804688 26.183594 L 102.503906 26.183594 L 102.503906 23.148438 L 77.109375 23.148438 L 77.109375 26.183594 Z M 88.28125 26.183594 " fill-opacity="1" fill-rule="evenodd"/></g><path fill="#b99b91" d="M 95.226562 27.449219 L 92.574219 27.449219 C 91.257812 27.449219 90 28.011719 89.125 28.988281 C 88.246094 29.96875 87.828125 31.273438 87.976562 32.574219 L 89.394531 45.015625 C 89.597656 46.808594 91.121094 48.164062 92.933594 48.164062 L 100.804688 48.164062 C 102.617188 48.164062 104.140625 46.808594 104.34375 45.015625 L 105.761719 32.574219 C 105.910156 31.273438 105.492188 29.96875 104.613281 28.988281 C 103.738281 28.011719 102.480469 27.449219 101.164062 27.449219 L 98.824219 27.449219 C 98.828125 27.410156 98.828125 27.371094 98.828125 27.328125 C 98.828125 26.523438 98.019531 25.871094 97.023438 25.871094 C 96.027344 25.871094 95.21875 26.523438 95.21875 27.328125 C 95.21875 27.371094 95.222656 27.410156 95.226562 27.449219 Z M 97.023438 26.425781 C 97.273438 26.425781 97.476562 26.628906 97.476562 26.878906 C 97.476562 27.128906 97.273438 27.328125 97.023438 27.328125 C 96.773438 27.328125 96.570312 27.128906 96.570312 26.878906 C 96.570312 26.628906 96.773438 26.425781 97.023438 26.425781 Z M 97.023438 26.425781 " fill-opacity="1" fill-rule="evenodd"/><path fill="#ffffff" d="M 104.324219 32.414062 C 104.425781 31.519531 104.140625 30.621094 103.535156 29.949219 C 102.933594 29.273438 102.070312 28.890625 101.164062 28.890625 L 92.574219 28.890625 C 91.667969 28.890625 90.804688 29.273438 90.199219 29.949219 C 89.597656 30.621094 89.3125 31.519531 89.414062 32.414062 L 90.828125 44.855469 C 90.949219 45.917969 91.855469 46.726562 92.933594 46.726562 L 100.804688 46.726562 C 101.878906 46.726562 102.785156 45.917969 102.90625 44.855469 Z M 104.324219 32.414062 " fill-opacity="1" fill-rule="evenodd"/><path fill="#d53e6a" d="M 104.003906 34.925781 C 104.105469 34.039062 99.316406 30.421875 96.867188 33.152344 C 93.914062 36.453125 89.71875 35.390625 90.0625 37.808594 C 90.589844 41.527344 90.53125 41.917969 90.863281 44.851562 C 90.984375 45.898438 91.875 46.691406 92.933594 46.691406 L 100.804688 46.691406 C 101.863281 46.691406 102.753906 45.898438 102.875 44.851562 C 103.207031 41.917969 103.578125 38.65625 104.003906 34.925781 Z M 104.003906 34.925781 " fill-opacity="1" fill-rule="evenodd"/><path fill="#ffffff" d="M 93.171875 37.726562 C 93.171875 37.101562 93.441406 36.597656 93.773438 36.597656 L 100.273438 36.597656 C 100.605469 36.597656 100.878906 37.101562 100.878906 37.726562 L 100.878906 39.984375 C 100.878906 40.605469 100.605469 41.113281 100.273438 41.113281 L 93.773438 41.113281 C 93.441406 41.113281 93.171875 40.605469 93.171875 39.984375 Z M 93.171875 37.726562 " fill-opacity="1" fill-rule="evenodd"/><path fill="#333333" d="M 99.777344 37.441406 C 99.753906 37.421875 99.714844 37.382812 99.6875 37.355469 C 99.648438 37.320312 99.609375 37.292969 99.570312 37.277344 C 99.34375 37.191406 99.039062 37.195312 98.8125 37.273438 C 98.578125 37.359375 98.441406 37.308594 98.296875 37.257812 C 98.179688 37.21875 98.054688 37.175781 97.882812 37.175781 C 97.792969 37.175781 97.710938 37.203125 97.628906 37.234375 C 97.566406 37.257812 97.503906 37.28125 97.433594 37.285156 C 97.359375 37.292969 97.289062 37.273438 97.21875 37.257812 C 97.132812 37.234375 97.050781 37.210938 96.957031 37.210938 C 95.996094 37.210938 95.132812 37.300781 94.160156 37.175781 C 94.113281 37.167969 94.066406 37.203125 94.058594 37.253906 C 94.054688 37.304688 94.089844 37.347656 94.136719 37.355469 C 95.117188 37.480469 95.988281 37.390625 96.957031 37.394531 C 97.03125 37.394531 97.101562 37.414062 97.175781 37.433594 C 97.261719 37.453125 97.347656 37.472656 97.445312 37.46875 C 97.53125 37.460938 97.613281 37.433594 97.691406 37.402344 C 97.753906 37.382812 97.816406 37.359375 97.882812 37.359375 C 98.070312 37.355469 98.191406 37.417969 98.320312 37.457031 C 98.472656 37.503906 98.628906 37.53125 98.871094 37.445312 C 99.0625 37.378906 99.320312 37.375 99.507812 37.445312 C 99.53125 37.457031 99.554688 37.480469 99.578125 37.507812 C 99.621094 37.546875 99.660156 37.589844 99.695312 37.609375 C 99.734375 37.632812 99.773438 37.636719 99.808594 37.628906 C 99.832031 37.625 99.859375 37.609375 99.882812 37.582031 C 99.914062 37.546875 99.910156 37.488281 99.875 37.457031 C 99.847656 37.429688 99.808594 37.425781 99.777344 37.441406 Z M 100.191406 38.582031 C 100.226562 38.621094 100.28125 38.621094 100.320312 38.589844 C 100.34375 38.570312 100.355469 38.539062 100.347656 38.503906 C 100.347656 38.492188 100.339844 38.472656 100.320312 38.453125 C 100.300781 38.433594 100.171875 38.355469 100.167969 38.355469 C 99.964844 38.25 99.734375 38.191406 99.507812 38.1875 C 99.082031 38.179688 98.671875 38.308594 98.242188 38.277344 C 97.863281 38.25 97.515625 38.335938 97.144531 38.34375 C 96.441406 38.359375 94.863281 38.171875 94.199219 38.03125 C 94.148438 38.023438 94.101562 38.054688 94.089844 38.101562 C 94.078125 38.152344 94.109375 38.199219 94.160156 38.210938 C 94.835938 38.351562 96.433594 38.539062 97.148438 38.527344 C 97.511719 38.519531 97.859375 38.433594 98.230469 38.457031 C 98.664062 38.488281 99.074219 38.359375 99.503906 38.367188 C 99.703125 38.371094 99.90625 38.421875 100.082031 38.515625 C 100.085938 38.515625 100.160156 38.558594 100.191406 38.582031 Z M 100.171875 38.542969 C 100.160156 38.503906 100.175781 38.472656 100.199219 38.453125 C 100.171875 38.476562 100.164062 38.511719 100.171875 38.542969 Z M 99.574219 39.289062 C 99.582031 39.304688 99.589844 39.316406 99.605469 39.324219 C 99.644531 39.355469 99.703125 39.34375 99.730469 39.304688 C 99.769531 39.246094 99.765625 39.164062 99.644531 39.121094 C 99.496094 39.070312 99.042969 39.050781 99.03125 39.050781 C 98.59375 38.976562 98.113281 39 97.683594 39.027344 C 96.511719 39.113281 95.304688 39.035156 94.128906 39 C 94.078125 39 94.035156 39.039062 94.035156 39.089844 C 94.03125 39.140625 94.070312 39.179688 94.121094 39.183594 C 95.308594 39.21875 96.519531 39.292969 97.695312 39.210938 C 98.113281 39.179688 98.574219 39.15625 99 39.230469 C 99.007812 39.230469 99.347656 39.242188 99.527344 39.277344 C 99.542969 39.28125 99.558594 39.285156 99.574219 39.289062 Z M 99.148438 40.019531 C 99.140625 40.023438 99.128906 40.027344 99.117188 40.03125 C 99.082031 40.039062 99.039062 40.039062 98.988281 40.039062 C 98.792969 40.035156 98.511719 39.988281 98.285156 39.953125 C 98.117188 39.929688 97.976562 39.917969 97.902344 39.925781 C 97.722656 39.953125 97.546875 39.9375 97.371094 39.917969 C 97.183594 39.898438 96.996094 39.875 96.804688 39.894531 C 96.082031 39.964844 95.386719 40.121094 94.660156 40.132812 C 94.613281 40.132812 94.570312 40.171875 94.570312 40.222656 C 94.574219 40.273438 94.613281 40.3125 94.664062 40.3125 C 95.394531 40.304688 96.09375 40.144531 96.824219 40.074219 C 97.003906 40.058594 97.175781 40.078125 97.351562 40.097656 C 97.542969 40.117188 97.734375 40.136719 97.929688 40.105469 C 97.992188 40.097656 98.113281 40.113281 98.257812 40.132812 C 98.492188 40.167969 98.78125 40.21875 98.984375 40.21875 C 99.089844 40.222656 99.171875 40.210938 99.226562 40.183594 C 99.289062 40.15625 99.320312 40.109375 99.328125 40.050781 C 99.332031 40.003906 99.296875 39.957031 99.246094 39.953125 C 99.199219 39.949219 99.160156 39.976562 99.148438 40.019531 Z M 99.148438 40.019531 " fill-opacity="1" fill-rule="evenodd"/><path fill="#ffffff" d="M 100.019531 33.019531 C 100.28125 32.972656 100.652344 33.148438 100.890625 33.226562 C 102.160156 33.644531 103.523438 34.4375 103.53125 35.921875 C 103.535156 36.242188 103.386719 38.046875 102.699219 37.625 C 101.863281 37.113281 102.511719 35.746094 101.5 34.929688 C 100.867188 34.417969 99.679688 34.484375 99.632812 33.421875 C 99.628906 33.308594 100.019531 33.019531 100.019531 33.019531 Z M 100.019531 33.019531 " fill-opacity="1" fill-rule="evenodd"/><path fill="#ffffff" d="M 102.808594 38.757812 C 102.800781 38.75 102.8125 38.773438 102.8125 38.78125 C 102.839844 38.929688 102.847656 39.085938 102.851562 39.234375 C 102.851562 39.46875 102.855469 40.199219 102.484375 40.183594 C 102.027344 40.160156 101.742188 38.632812 102.363281 38.492188 C 102.464844 38.46875 102.808594 38.757812 102.808594 38.757812 Z M 102.808594 38.757812 " fill-opacity="1" fill-rule="evenodd"/><path fill="#d53e6a" d="M 96.1875 44.152344 L 97.550781 44.152344 L 97.550781 51.5 C 97.550781 51.875 97.246094 52.175781 96.867188 52.175781 C 96.492188 52.175781 96.1875 51.875 96.1875 51.5 Z M 96.1875 44.152344 " fill-opacity="1" fill-rule="evenodd"/><g clip-path="url(#b70e57b3b3)"><path fill="#b99b91" d="M 35.828125 116.355469 L 22.394531 65.203125 C 22.222656 64.554688 22.394531 63.863281 22.855469 63.375 C 24.359375 61.773438 26.617188 61.109375 28.753906 61.640625 C 30.890625 62.171875 32.566406 63.816406 33.136719 65.933594 L 43.710938 106.171875 L 72.230469 106.171875 C 75.179688 106.269531 77.597656 108.523438 77.894531 111.441406 C 78.023438 112.722656 77.589844 114 76.703125 114.941406 C 75.820312 115.882812 74.570312 116.398438 73.273438 116.355469 Z M 35.828125 116.355469 " fill-opacity="1" fill-rule="evenodd"/></g><path fill="#b99b91" d="M 98.734375 117.847656 C 98.953125 117.304688 98.683594 116.691406 98.136719 116.476562 L 75.339844 107.519531 C 74.792969 107.304688 74.175781 107.570312 73.960938 108.113281 L 73.179688 110.082031 C 72.964844 110.625 73.234375 111.238281 73.78125 111.453125 L 96.578125 120.414062 C 97.125 120.628906 97.742188 120.359375 97.957031 119.816406 Z M 98.734375 117.847656 " fill-opacity="1" fill-rule="evenodd"/><path fill="#b99b91" d="M 37.789062 125.304688 C 37.480469 126.132812 36.636719 126.519531 35.90625 126.167969 C 35.175781 125.8125 34.835938 124.851562 35.148438 124.023438 L 49.253906 86.332031 C 49.480469 85.730469 50 85.339844 50.578125 85.339844 L 78.796875 85.339844 C 79.371094 85.339844 79.890625 85.730469 80.117188 86.332031 L 94.226562 124.023438 C 94.539062 124.851562 94.199219 125.8125 93.464844 126.167969 C 92.738281 126.519531 91.890625 126.132812 91.582031 125.304688 C 91.582031 125.304688 77.847656 88.605469 77.847656 88.605469 L 51.527344 88.605469 Z M 37.789062 125.304688 " fill-opacity="1" fill-rule="evenodd"/><path fill="#f7baaf" d="M 53.867188 90.058594 C 57.398438 88.867188 69.398438 82.882812 69.398438 82.882812 L 68.242188 80.03125 L 52.179688 83.890625 C 50.109375 84.371094 49.070312 86.679688 50.085938 88.535156 C 50.820312 89.878906 52.414062 90.546875 53.867188 90.058594 Z M 53.867188 90.058594 " fill-opacity="1" fill-rule="nonzero"/><path fill="#f7baaf" d="M 50.382812 89.167969 L 51.179688 89.695312 C 52.816406 90.773438 55.03125 90.15625 55.863281 88.386719 C 56.511719 87.011719 56.101562 85.371094 54.875 84.460938 L 53.078125 83.128906 Z M 50.382812 89.167969 " fill-opacity="1" fill-rule="nonzero"/><path fill="#f7baaf" d="M 67.980469 80.113281 C 68.0625 80.316406 68.21875 80.886719 68.300781 81.089844 C 68.539062 81.675781 69.132812 82.957031 69.132812 82.957031 C 69.132812 82.957031 72.621094 81.722656 73.398438 81.492188 C 74.003906 81.308594 74.640625 81.121094 75.167969 80.75 C 75.726562 80.355469 76.214844 79.855469 76.710938 79.367188 C 76.789062 79.289062 76.871094 79.210938 76.914062 79.101562 C 76.992188 78.90625 76.902344 78.601562 76.695312 78.546875 C 76.238281 78.425781 75.832031 78.835938 75.519531 79.121094 C 75.226562 79.386719 74.949219 79.675781 74.625 79.875 C 74.296875 80.074219 73.945312 80.125 73.5625 80.121094 C 73.292969 80.117188 73.019531 80.128906 72.746094 80.117188 C 72.671875 80.113281 72.589844 80.109375 72.511719 80.097656 C 72.484375 80.09375 72.453125 80.089844 72.425781 80.085938 C 72.28125 80.054688 72.140625 80 72.023438 79.886719 C 71.925781 79.792969 71.808594 79.613281 71.796875 79.464844 C 71.792969 79.304688 71.933594 79.238281 72.03125 79.171875 C 72.148438 79.09375 72.28125 79.046875 72.410156 79.007812 C 72.589844 78.957031 72.777344 78.914062 72.945312 78.828125 C 72.992188 78.804688 73.03125 78.78125 73.074219 78.746094 C 73.109375 78.726562 73.140625 78.699219 73.171875 78.667969 C 73.484375 78.347656 73.527344 77.546875 72.921875 77.570312 C 72.789062 77.574219 72.667969 77.621094 72.542969 77.660156 C 71.957031 77.847656 71.324219 77.886719 70.792969 78.203125 C 70.445312 78.40625 70.128906 78.652344 69.816406 78.898438 C 69.292969 79.308594 68.316406 79.875 68.070312 80.09375 C 68.042969 80.097656 68.011719 80.105469 67.980469 80.113281 Z M 67.980469 80.113281 " fill-opacity="1" fill-rule="evenodd"/><path fill="#d53e6a" d="M 48.722656 74.457031 C 47.441406 73.191406 45.367188 73.195312 44.09375 74.46875 C 43.171875 75.394531 42.925781 76.730469 43.34375 77.878906 L 43.339844 77.878906 C 43.339844 77.878906 43.351562 77.917969 43.378906 77.984375 C 43.382812 77.992188 43.386719 78.003906 43.390625 78.011719 C 43.710938 78.808594 46.847656 84.839844 50.21875 89.070312 L 53.722656 82.859375 L 49.402344 75.445312 C 49.242188 75.085938 49.015625 74.75 48.722656 74.457031 Z M 48.722656 74.457031 " fill-opacity="1" fill-rule="nonzero"/><path fill="#d53e6a" d="M 97.257812 52.273438 C 97.257812 52.355469 97.261719 52.78125 97.261719 52.804688 C 97.261719 53.238281 99.695312 76.59375 97.511719 90.421875 C 96.9375 94.050781 96.039062 97.027344 94.71875 98.808594 C 93.769531 100.085938 92.597656 100.769531 91.191406 100.714844 C 86.46875 100.523438 84.769531 97.457031 83.476562 94.21875 C 82.867188 92.6875 82.355469 91.121094 81.613281 89.847656 C 80.921875 88.652344 80.035156 87.722656 78.632812 87.378906 C 70.1875 85.304688 58.5625 85.734375 58.5625 85.734375 C 58.339844 85.746094 58.15625 85.574219 58.144531 85.351562 C 58.136719 85.132812 58.3125 84.949219 58.53125 84.9375 C 58.53125 84.9375 70.285156 84.507812 78.828125 86.601562 C 80.453125 87 81.503906 88.0625 82.308594 89.449219 C 83.066406 90.753906 83.597656 92.355469 84.222656 93.925781 C 85.402344 96.886719 86.90625 99.742188 91.226562 99.917969 C 92.371094 99.964844 93.300781 99.375 94.074219 98.332031 C 95.335938 96.632812 96.171875 93.769531 96.71875 90.296875 C 98.898438 76.515625 96.464844 53.238281 96.464844 52.804688 C 96.464844 52.773438 96.449219 52.238281 96.46875 52.128906 C 96.519531 51.839844 96.75 51.789062 96.820312 51.78125 C 97.042969 51.753906 97.238281 51.90625 97.265625 52.125 C 97.273438 52.175781 97.273438 52.226562 97.257812 52.273438 Z M 97.257812 52.273438 " fill-opacity="1" fill-rule="evenodd"/><path fill="#ffffff" d="M 58.046875 87.363281 C 57.648438 87.410156 57.304688 87.3125 57.285156 87.144531 L 56.898438 83.875 C 56.878906 83.707031 57.1875 83.535156 57.589844 83.484375 L 59.042969 83.316406 C 59.445312 83.269531 59.785156 83.367188 59.804688 83.53125 L 60.195312 86.800781 C 60.214844 86.96875 59.90625 87.144531 59.503906 87.191406 Z M 58.046875 87.363281 " fill-opacity="1" fill-rule="evenodd"/><path fill="#f7baaf" d="M 74.378906 95.800781 L 62.199219 96.046875 C 60.425781 96.0625 58.898438 97.257812 58.738281 98.753906 C 58.5625 100.394531 60.089844 101.722656 62.039062 101.621094 L 74.230469 100.980469 C 75.886719 100.894531 77.242188 99.722656 77.304688 98.332031 C 77.367188 96.910156 76.0625 95.78125 74.378906 95.800781 Z M 74.378906 95.800781 " fill-opacity="1" fill-rule="nonzero"/><path fill="#f7baaf" d="M 77.367188 103.960938 L 72.011719 100.46875 C 70.640625 99.574219 70.539062 97.835938 71.789062 96.699219 C 72.949219 95.644531 74.839844 95.507812 76.058594 96.390625 L 81.410156 100.277344 Z M 77.367188 103.960938 " fill-opacity="1" fill-rule="nonzero"/><path fill="#d53e6a" d="M 86.707031 104.121094 L 90.242188 103.710938 L 91.679688 102.964844 C 92.609375 102.378906 93.847656 102.359375 94.726562 102.910156 L 95.136719 103.171875 L 86.964844 110.679688 L 82.925781 107.589844 Z M 86.707031 104.121094 " fill-opacity="1" fill-rule="nonzero"/><path fill="#f7baaf" d="M 82.925781 107.589844 L 77.367188 103.960938 L 81.410156 100.277344 L 86.707031 104.121094 Z M 82.925781 107.589844 " fill-opacity="1" fill-rule="nonzero"/><path fill="#333333" d="M 51.914062 93.671875 C 51.914062 93.671875 65.035156 92.039062 75.9375 94.863281 C 81.015625 96.179688 84.402344 100.5625 87.949219 102.726562 L 82.761719 107.96875 L 72.960938 101.019531 L 51.609375 102.277344 Z M 51.914062 93.671875 " fill-opacity="1" fill-rule="nonzero"/><path fill="#f7baaf" d="M 69.882812 98.542969 L 57.90625 100.746094 C 56.15625 101.050781 54.84375 102.476562 54.929688 103.976562 C 55.023438 105.625 56.75 106.6875 58.65625 106.277344 L 70.582031 103.679688 C 72.199219 103.328125 73.347656 101.953125 73.183594 100.570312 C 73.011719 99.160156 71.542969 98.253906 69.882812 98.542969 Z M 69.882812 98.542969 " fill-opacity="1" fill-rule="nonzero"/><path fill="#f7baaf" d="M 74.160156 106.117188 L 68.308594 103.53125 C 66.808594 102.867188 66.425781 101.171875 67.472656 99.847656 C 68.445312 98.617188 70.292969 98.179688 71.636719 98.855469 L 77.554688 101.828125 Z M 74.160156 106.117188 " fill-opacity="1" fill-rule="nonzero"/><path fill="#d53e6a" d="M 83.40625 104.769531 L 86.824219 103.792969 L 88.121094 102.828125 C 88.945312 102.101562 90.164062 101.878906 91.117188 102.285156 L 91.566406 102.472656 L 84.722656 111.199219 L 80.234375 108.800781 Z M 83.40625 104.769531 " fill-opacity="1" fill-rule="nonzero"/><path fill="#f7baaf" d="M 80.234375 108.800781 L 74.160156 106.117188 L 77.554688 101.828125 L 83.40625 104.769531 Z M 80.234375 108.800781 " fill-opacity="1" fill-rule="nonzero"/><path fill="#333333" d="M 49.152344 97.074219 C 49.152344 97.074219 60.054688 96.335938 71.269531 97.367188 C 76.496094 97.847656 80.550781 101.628906 84.402344 103.191406 L 80.132812 109.199219 L 69.167969 106.296875 C 69.167969 106.296875 51.140625 108.800781 47.007812 107.828125 C 44.132812 107.152344 44.003906 102.253906 44.359375 100.460938 C 44.699219 98.765625 49.152344 97.074219 49.152344 97.074219 Z M 49.152344 97.074219 " fill-opacity="1" fill-rule="nonzero"/><path fill="#d53e6a" d="M 40.40625 72.277344 C 42.210938 71.589844 45.011719 70.765625 47.863281 73.589844 C 51.269531 76.972656 59.289062 94 59.289062 94 C 58.503906 99.015625 50.941406 103.414062 43.558594 104.003906 C 43.558594 104.003906 34.449219 84.1875 33.925781 78.898438 C 33.65625 76.210938 38.613281 72.964844 40.40625 72.277344 Z M 40.40625 72.277344 " fill-opacity="1" fill-rule="nonzero"/><path fill="#f7baaf" d="M 41.894531 76.035156 L 41.726562 76.097656 C 40.671875 76.496094 39.492188 75.96875 39.089844 74.921875 L 37.996094 72.058594 L 41.980469 70.546875 L 43.074219 73.410156 C 43.476562 74.457031 42.949219 75.632812 41.894531 76.035156 Z M 41.894531 76.035156 " fill-opacity="1" fill-rule="nonzero"/><path fill="#333333" d="M 43.453125 61.546875 C 44.335938 65.238281 42.050781 68.941406 38.34375 69.824219 C 34.640625 70.703125 30.917969 68.429688 30.035156 64.738281 C 29.773438 63.644531 28.835938 61.644531 29.246094 60.671875 C 29.714844 59.5625 33.257812 57.183594 35.714844 56.269531 C 40.292969 54.566406 42.566406 57.859375 43.453125 61.546875 Z M 43.453125 61.546875 " fill-opacity="1" fill-rule="nonzero"/><path fill="#f7baaf" d="M 32.636719 67.535156 C 32.636719 67.535156 31.753906 66.875 30.789062 67.730469 C 29.820312 68.585938 31.378906 71.128906 33.207031 70.832031 C 33.207031 70.832031 33.980469 70.664062 34.300781 70.070312 C 34.300781 70.070312 32.996094 68.277344 32.636719 67.535156 Z M 32.636719 67.535156 " fill-opacity="1" fill-rule="nonzero"/><path fill="#333333" d="M 32.398438 68.667969 C 32.28125 68.625 32.175781 68.601562 32.074219 68.589844 C 31.675781 68.546875 31.4375 68.738281 31.4375 68.738281 C 31.398438 68.769531 31.339844 68.765625 31.308594 68.726562 C 31.277344 68.6875 31.285156 68.632812 31.320312 68.601562 C 31.320312 68.601562 31.609375 68.359375 32.09375 68.410156 C 32.402344 68.441406 32.792969 68.59375 33.242188 69.011719 C 33.277344 69.046875 33.28125 69.101562 33.246094 69.140625 C 33.210938 69.175781 33.152344 69.175781 33.117188 69.144531 C 32.921875 68.957031 32.738281 68.828125 32.566406 68.742188 C 32.480469 68.855469 32.296875 69.144531 32.363281 69.4375 C 32.394531 69.597656 32.507812 69.753906 32.742188 69.890625 C 32.785156 69.914062 32.800781 69.96875 32.773438 70.011719 C 32.75 70.054688 32.695312 70.070312 32.652344 70.042969 C 32.355469 69.878906 32.226562 69.671875 32.1875 69.472656 C 32.117188 69.148438 32.292969 68.824219 32.398438 68.667969 Z M 32.398438 68.667969 " fill-opacity="1" fill-rule="evenodd"/><path fill="#f7baaf" d="M 42.859375 60.761719 C 43.433594 62.253906 44.355469 65.132812 44.082031 67.359375 C 43.824219 69.445312 42.65625 70.960938 40.675781 71.777344 C 38.695312 72.589844 36.929688 72.4375 34.871094 70.632812 C 32.8125 68.832031 31.457031 65.117188 31.457031 65.117188 C 31.457031 65.117188 29.417969 59.789062 35.0625 57.648438 C 41.011719 55.394531 42.859375 60.761719 42.859375 60.761719 Z M 42.859375 60.761719 " fill-opacity="1" fill-rule="nonzero"/><path fill="#333333" d="M 39.613281 72.042969 C 39.535156 72.050781 39.464844 71.992188 39.453125 71.914062 C 39.449219 71.835938 39.503906 71.765625 39.582031 71.757812 C 39.582031 71.757812 40.949219 71.605469 42.03125 70.824219 C 42.097656 70.777344 42.1875 70.792969 42.234375 70.855469 C 42.28125 70.921875 42.265625 71.011719 42.203125 71.054688 C 41.054688 71.882812 39.613281 72.042969 39.613281 72.042969 Z M 39.613281 72.042969 " fill-opacity="1" fill-rule="evenodd"/><path fill="#333333" d="M 39.96875 68.582031 C 40.054688 68.550781 40.152344 68.59375 40.183594 68.679688 C 40.214844 68.765625 40.167969 68.863281 40.082031 68.894531 C 40.082031 68.894531 39.238281 69.195312 38.507812 68.882812 C 38.425781 68.847656 38.386719 68.75 38.421875 68.664062 C 38.457031 68.582031 38.554688 68.542969 38.640625 68.578125 C 39.253906 68.839844 39.96875 68.582031 39.96875 68.582031 Z M 39.96875 68.582031 " fill-opacity="1" fill-rule="evenodd"/><path fill="#333333" d="M 38.820312 65.5625 C 38.785156 65.472656 38.824219 65.378906 38.910156 65.34375 C 38.996094 65.304688 39.089844 65.347656 39.128906 65.429688 C 39.128906 65.429688 39.425781 66.109375 39.425781 66.109375 C 39.5 66.082031 39.589844 66.0625 39.691406 66.074219 C 39.84375 66.09375 40.027344 66.183594 40.171875 66.476562 C 40.277344 66.691406 40.28125 66.859375 40.238281 66.988281 C 40.140625 67.296875 39.777344 67.398438 39.777344 67.398438 C 39.6875 67.421875 39.59375 67.371094 39.570312 67.28125 C 39.546875 67.191406 39.601562 67.101562 39.691406 67.078125 C 39.691406 67.078125 39.871094 67.039062 39.917969 66.890625 C 39.9375 66.820312 39.929688 66.734375 39.871094 66.625 C 39.800781 66.476562 39.722656 66.414062 39.644531 66.40625 C 39.539062 66.390625 39.453125 66.464844 39.453125 66.464844 C 39.414062 66.5 39.359375 66.515625 39.308594 66.5 C 39.257812 66.488281 39.214844 66.453125 39.191406 66.402344 Z M 38.820312 65.5625 " fill-opacity="1" fill-rule="evenodd"/><path fill="#333333" d="M 38.070312 57.015625 C 36.917969 57.09375 35.921875 57.058594 35.074219 57.394531 C 34.214844 57.707031 33.492188 58.390625 32.578125 59.097656 C 29.652344 61.367188 30.949219 65.394531 31.785156 67.21875 L 32.886719 68.105469 L 32.257812 65.3125 C 33.652344 64.597656 37.121094 62.582031 38.132812 59.757812 C 39.316406 60.648438 40.945312 61.59375 42.5625 61.613281 L 43.863281 63.941406 L 43.566406 62.144531 C 42.90625 60.25 41.796875 56.761719 38.070312 57.015625 Z M 38.070312 57.015625 " fill-opacity="1" fill-rule="nonzero"/><g clip-path="url(#1e7e5eae72)"><path fill="#b99b91" d="M 28.714844 133.742188 C 28.40625 134.574219 27.5625 134.960938 26.832031 134.605469 C 26.101562 134.253906 25.761719 133.292969 26.074219 132.460938 L 40.179688 94.769531 C 40.40625 94.167969 40.925781 93.777344 41.503906 93.777344 L 69.722656 93.777344 C 70.296875 93.777344 70.816406 94.167969 71.039062 94.769531 L 85.152344 132.460938 C 85.460938 133.292969 85.121094 134.253906 84.390625 134.605469 C 83.664062 134.960938 82.816406 134.574219 82.503906 133.742188 C 82.503906 133.742188 68.769531 97.046875 68.769531 97.046875 L 42.453125 97.046875 Z M 28.714844 133.742188 " fill-opacity="1" fill-rule="evenodd"/></g><path fill="#f7baaf" d="M 39.035156 94.5 C 42.753906 94.753906 56.144531 93.835938 56.144531 93.835938 L 56.175781 90.761719 L 39.863281 88.164062 C 37.769531 87.8125 35.914062 89.542969 36.132812 91.648438 C 36.292969 93.167969 37.503906 94.398438 39.035156 94.5 Z M 39.035156 94.5 " fill-opacity="1" fill-rule="nonzero"/><path fill="#f7baaf" d="M 36.164062 92.34375 L 36.695312 93.132812 C 37.785156 94.757812 40.070312 95.039062 41.523438 93.726562 C 42.65625 92.703125 42.910156 91.03125 42.128906 89.722656 L 40.984375 87.804688 Z M 36.164062 92.34375 " fill-opacity="1" fill-rule="nonzero"/><path fill="#f7baaf" d="M 55.886719 90.742188 C 55.882812 90.960938 55.808594 91.546875 55.804688 91.765625 C 55.796875 92.398438 55.847656 93.808594 55.847656 93.808594 C 55.847656 93.808594 59.546875 94.007812 60.351562 94.089844 C 60.984375 94.15625 61.640625 94.222656 62.269531 94.085938 C 62.9375 93.9375 63.585938 93.660156 64.230469 93.398438 C 64.332031 93.359375 64.4375 93.316406 64.523438 93.234375 C 64.667969 93.085938 64.703125 92.769531 64.53125 92.636719 C 64.15625 92.351562 63.625 92.574219 63.226562 92.714844 C 62.855469 92.851562 62.488281 93.011719 62.109375 93.070312 C 61.730469 93.128906 61.382812 93.039062 61.035156 92.890625 C 60.785156 92.78125 60.53125 92.6875 60.28125 92.570312 C 60.214844 92.539062 60.140625 92.503906 60.070312 92.464844 C 60.046875 92.449219 60.023438 92.433594 60 92.417969 C 59.875 92.335938 59.769531 92.230469 59.703125 92.082031 C 59.648438 91.957031 59.609375 91.75 59.660156 91.609375 C 59.71875 91.457031 59.871094 91.449219 59.988281 91.425781 C 60.128906 91.398438 60.269531 91.410156 60.402344 91.421875 C 60.585938 91.441406 60.777344 91.472656 60.964844 91.460938 C 61.019531 91.457031 61.0625 91.449219 61.117188 91.433594 C 61.15625 91.425781 61.195312 91.414062 61.234375 91.398438 C 61.648438 91.222656 61.996094 90.5 61.429688 90.289062 C 61.304688 90.242188 61.175781 90.238281 61.046875 90.226562 C 60.433594 90.175781 59.832031 89.96875 59.21875 90.054688 C 58.824219 90.109375 58.433594 90.214844 58.050781 90.324219 C 57.40625 90.5 56.289062 90.648438 55.976562 90.757812 C 55.949219 90.753906 55.917969 90.746094 55.886719 90.742188 Z M 55.886719 90.742188 " fill-opacity="1" fill-rule="evenodd"/><path fill="#d53e6a" d="M 40.320312 78.132812 C 39.628906 76.46875 37.714844 75.679688 36.046875 76.367188 C 34.839844 76.867188 34.09375 78.003906 34.035156 79.222656 L 34.03125 79.226562 C 34.03125 79.226562 34.027344 79.265625 34.027344 79.335938 C 34.027344 79.347656 34.027344 79.355469 34.027344 79.367188 C 34.011719 80.222656 34.578125 86.996094 36.046875 92.191406 L 41.6875 87.800781 L 40.566406 79.304688 C 40.558594 78.910156 40.480469 78.515625 40.320312 78.132812 Z M 40.320312 78.132812 " fill-opacity="1" fill-rule="nonzero"/><path fill="#333333" d="M 40.152344 78.160156 C 40.140625 78.070312 40.207031 77.980469 40.296875 77.96875 C 40.386719 77.957031 40.476562 78.019531 40.488281 78.113281 L 41.878906 87.765625 C 41.890625 87.859375 41.828125 87.945312 41.734375 87.957031 C 41.644531 87.96875 41.558594 87.90625 41.546875 87.8125 Z M 40.152344 78.160156 " fill-opacity="1" fill-rule="evenodd"/></svg>