<svg xmlns="http://www.w3.org/2000/svg" xmlns:xlink="http://www.w3.org/1999/xlink" width="200" zoomAndPan="magnify" viewBox="0 0 150 149.999998" height="200" preserveAspectRatio="xMidYMid meet" version="1.0"><defs><g/><clipPath id="ed1cb86866"><path d="M 68.273438 57 L 81.773438 57 L 81.773438 66 L 68.273438 66 Z M 68.273438 57 " clip-rule="nonzero"/></clipPath><clipPath id="b80a882bf5"><path d="M 71 59 L 80 59 L 80 69.746094 L 71 69.746094 Z M 71 59 " clip-rule="nonzero"/></clipPath></defs><g clip-path="url(#ed1cb86866)"><path fill="#bfe063" d="M 76.0625 64.988281 C 76.0625 64.988281 73.492188 65.070312 71.089844 63.015625 C 68.683594 60.957031 68.316406 57.0625 68.289062 57.089844 C 68.261719 57.117188 71.925781 56.386719 74.609375 58.816406 C 77.292969 61.246094 76.0625 64.988281 76.0625 64.988281 Z M 81.046875 62.402344 C 81.816406 60.875 81.753906 58.929688 81.753906 58.929688 C 81.753906 58.929688 79.28125 58.910156 77.910156 60.597656 C 76.136719 62.773438 76.867188 65.359375 76.867188 65.359375 C 76.867188 65.359375 79.9375 64.601562 81.046875 62.402344 Z M 81.046875 62.402344 " fill-opacity="1" fill-rule="nonzero"/></g><g clip-path="url(#b80a882bf5)"><path fill="#6f913d" d="M 79.328125 61.152344 C 79.242188 61.0625 79.097656 61.0625 79.003906 61.148438 C 77.554688 62.570312 76.84375 64.257812 76.496094 65.976562 C 76.113281 64.03125 75.039062 61.070312 72.027344 59.515625 C 71.914062 59.457031 71.773438 59.5 71.71875 59.609375 C 71.660156 59.71875 71.707031 59.863281 71.816406 59.914062 C 76.019531 62.089844 76.242188 67.191406 76.25 67.804688 C 76.203125 68.382812 76.191406 68.953125 76.183594 69.507812 C 76.183594 69.636719 76.285156 69.734375 76.414062 69.734375 C 76.539062 69.734375 76.640625 69.636719 76.640625 69.507812 C 76.648438 68.988281 76.660156 68.460938 76.699219 67.925781 C 76.703125 67.90625 76.707031 67.886719 76.707031 67.871094 L 76.707031 67.820312 C 76.878906 65.59375 77.46875 63.285156 79.324219 61.46875 C 79.417969 61.386719 79.417969 61.246094 79.328125 61.152344 Z M 79.328125 61.152344 " fill-opacity="1" fill-rule="nonzero"/></g><g fill="#6f913d" fill-opacity="1"><g transform="translate(29.043629, 82.665561)"><g><path d="M 5.453125 0 L 3.8125 0 L 0.046875 -9.453125 L 1.75 -9.453125 L 4.671875 -1.765625 L 7.609375 -9.453125 L 9.28125 -9.453125 Z M 5.453125 0 "/></g></g></g><g fill="#6f913d" fill-opacity="1"><g transform="translate(39.376142, 82.665561)"><g><path d="M 1.890625 -8.109375 C 2.859375 -9.023438 4.050781 -9.484375 5.46875 -9.484375 C 6.882812 -9.484375 8.070312 -9.023438 9.03125 -8.109375 C 9.988281 -7.203125 10.46875 -6.070312 10.46875 -4.71875 C 10.46875 -3.375 9.988281 -2.238281 9.03125 -1.3125 C 8.070312 -0.394531 6.882812 0.0625 5.46875 0.0625 C 4.050781 0.0625 2.859375 -0.394531 1.890625 -1.3125 C 0.929688 -2.238281 0.453125 -3.375 0.453125 -4.71875 C 0.453125 -6.070312 0.929688 -7.203125 1.890625 -8.109375 Z M 5.484375 -8.0625 C 4.546875 -8.0625 3.742188 -7.738281 3.078125 -7.09375 C 2.410156 -6.445312 2.078125 -5.65625 2.078125 -4.71875 C 2.078125 -3.789062 2.410156 -3 3.078125 -2.34375 C 3.753906 -1.6875 4.554688 -1.359375 5.484375 -1.359375 C 6.410156 -1.359375 7.203125 -1.6875 7.859375 -2.34375 C 8.515625 -3 8.84375 -3.789062 8.84375 -4.71875 C 8.84375 -5.65625 8.515625 -6.445312 7.859375 -7.09375 C 7.203125 -7.738281 6.410156 -8.0625 5.484375 -8.0625 Z M 5.484375 -8.0625 "/></g></g></g><g fill="#6f913d" fill-opacity="1"><g transform="translate(51.327251, 82.665561)"><g><path d="M 2.828125 -1.4375 L 6.921875 -1.4375 L 6.921875 0 L 1.234375 0 L 1.234375 -9.453125 L 2.828125 -9.453125 Z M 2.828125 -1.4375 "/></g></g></g><g fill="#6f913d" fill-opacity="1"><g transform="translate(59.555595, 82.665561)"><g><path d="M 9.28125 -9.453125 L 9.28125 -3.921875 C 9.28125 -2.679688 8.914062 -1.707031 8.1875 -1 C 7.457031 -0.289062 6.453125 0.0625 5.171875 0.0625 C 3.890625 0.0625 2.878906 -0.289062 2.140625 -1 C 1.410156 -1.707031 1.046875 -2.679688 1.046875 -3.921875 L 1.046875 -9.453125 L 2.640625 -9.453125 L 2.640625 -3.921875 C 2.640625 -3.128906 2.867188 -2.503906 3.328125 -2.046875 C 3.785156 -1.585938 4.40625 -1.359375 5.1875 -1.359375 C 5.957031 -1.359375 6.566406 -1.582031 7.015625 -2.03125 C 7.460938 -2.488281 7.6875 -3.117188 7.6875 -3.921875 L 7.6875 -9.453125 Z M 9.28125 -9.453125 "/></g></g></g><g fill="#6f913d" fill-opacity="1"><g transform="translate(70.886253, 82.665561)"><g><path d="M 9.4375 0 L 7.875 0 L 2.828125 -6.78125 L 2.828125 0 L 1.234375 0 L 1.234375 -9.453125 L 2.8125 -9.453125 L 7.875 -2.65625 L 7.875 -9.453125 L 9.4375 -9.453125 Z M 9.4375 0 "/></g></g></g><g fill="#6f913d" fill-opacity="1"><g transform="translate(82.594576, 82.665561)"><g><path d="M 7.6875 -8.015625 L 4.703125 -8.015625 L 4.703125 0 L 3.109375 0 L 3.109375 -8.015625 L 0.125 -8.015625 L 0.125 -9.453125 L 7.6875 -9.453125 Z M 7.6875 -8.015625 "/></g></g></g><g fill="#6f913d" fill-opacity="1"><g transform="translate(91.429895, 82.665561)"><g><path d="M 7.984375 -8.015625 L 2.828125 -8.015625 L 2.828125 -5.46875 L 7.453125 -5.46875 L 7.453125 -4.03125 L 2.828125 -4.03125 L 2.828125 -1.4375 L 8.15625 -1.4375 L 8.15625 0 L 1.234375 0 L 1.234375 -9.453125 L 7.984375 -9.453125 Z M 7.984375 -8.015625 "/></g></g></g><g fill="#6f913d" fill-opacity="1"><g transform="translate(101.303812, 82.665561)"><g><path d="M 7.984375 -8.015625 L 2.828125 -8.015625 L 2.828125 -5.46875 L 7.453125 -5.46875 L 7.453125 -4.03125 L 2.828125 -4.03125 L 2.828125 -1.4375 L 8.15625 -1.4375 L 8.15625 0 L 1.234375 0 L 1.234375 -9.453125 L 7.984375 -9.453125 Z M 7.984375 -8.015625 "/></g></g></g><g fill="#6f913d" fill-opacity="1"><g transform="translate(111.177728, 82.665561)"><g><path d="M 7.234375 0 L 5.515625 -2.859375 C 5.421875 -2.847656 5.273438 -2.84375 5.078125 -2.84375 L 2.828125 -2.84375 L 2.828125 0 L 1.234375 0 L 1.234375 -9.453125 L 5.078125 -9.453125 C 6.285156 -9.453125 7.222656 -9.171875 7.890625 -8.609375 C 8.554688 -8.046875 8.890625 -7.25 8.890625 -6.21875 C 8.890625 -5.46875 8.71875 -4.832031 8.375 -4.3125 C 8.039062 -3.789062 7.554688 -3.40625 6.921875 -3.15625 L 9.046875 0 Z M 2.828125 -4.28125 L 5.078125 -4.28125 C 6.609375 -4.28125 7.375 -4.914062 7.375 -6.1875 C 7.375 -7.40625 6.609375 -8.015625 5.078125 -8.015625 L 2.828125 -8.015625 Z M 2.828125 -4.28125 "/></g></g></g></svg>