<svg xmlns="http://www.w3.org/2000/svg" xmlns:xlink="http://www.w3.org/1999/xlink" width="500" zoomAndPan="magnify" viewBox="0 0 375 374.999991" height="500" preserveAspectRatio="xMidYMid meet" version="1.0"><defs><g/><clipPath id="30d1459d85"><path d="M 50.921875 88 L 143 88 L 143 181 L 50.921875 181 Z M 50.921875 88 " clip-rule="nonzero"/></clipPath><clipPath id="0015cab162"><path d="M 286 265 L 323.921875 265 L 323.921875 313 L 286 313 Z M 286 265 " clip-rule="nonzero"/></clipPath><clipPath id="9d6ab00014"><path d="M 286 265 L 323.921875 265 L 323.921875 313.507812 L 286 313.507812 Z M 286 265 " clip-rule="nonzero"/></clipPath><clipPath id="1e755686e3"><path d="M 149 61.507812 L 206 61.507812 L 206 103 L 149 103 Z M 149 61.507812 " clip-rule="nonzero"/></clipPath></defs><path fill="#ffffff" d="M 51.363281 134.074219 C 51.363281 143.898438 54.46875 153 59.75 160.4375 C 60.3125 161.226562 60.890625 161.996094 61.503906 162.75 C 69.851562 173.0625 82.609375 179.652344 96.898438 179.652344 C 111.1875 179.652344 123.949219 173.0625 132.292969 162.75 C 132.902344 161.996094 133.492188 161.230469 134.046875 160.441406 C 139.332031 153.003906 142.4375 143.898438 142.4375 134.074219 C 142.4375 108.914062 122.050781 88.511719 96.898438 88.511719 C 71.746094 88.511719 51.363281 108.914062 51.363281 134.074219 Z M 51.363281 134.074219 " fill-opacity="1" fill-rule="nonzero"/><g clip-path="url(#30d1459d85)"><path stroke-linecap="round" transform="matrix(0.530964, 0, 0, 0.531309, -11.82124, -11.653703)" fill="none" stroke-linejoin="round" d="M 118.999721 274.28079 C 118.999721 292.771374 124.848463 309.901817 134.795001 323.900255 C 135.854396 325.385384 136.943218 326.833752 138.098253 328.252711 C 153.819963 347.662311 177.847623 360.065339 204.759189 360.065339 C 231.670756 360.065339 255.705772 347.662311 271.420126 328.252711 C 272.567804 326.833752 273.678697 325.392736 274.723377 323.907607 C 284.677273 309.909169 290.526014 292.771374 290.526014 274.28079 C 290.526014 226.925777 252.130315 188.525649 204.759189 188.525649 C 157.388063 188.525649 118.999721 226.925777 118.999721 274.28079 Z M 118.999721 274.28079 " stroke="#10112b" stroke-width="1.5" stroke-opacity="1" stroke-miterlimit="10"/></g><path stroke-linecap="round" transform="matrix(0.530964, 0, 0, 0.531309, -11.82124, -11.653703)" fill-opacity="1" fill="#97c2e8" fill-rule="nonzero" stroke-linejoin="round" d="M 138.098253 328.252711 C 153.819963 347.662311 177.847623 360.065339 204.759189 360.065339 C 231.670756 360.065339 255.705772 347.662311 271.420126 328.252711 C 256.56653 307.497673 232.244595 293.962418 204.759189 293.962418 C 177.288498 293.962418 152.966562 307.482969 138.098253 328.252711 Z M 138.098253 328.252711 " stroke="#10112b" stroke-width="1.5" stroke-opacity="1" stroke-miterlimit="10"/><path stroke-linecap="round" transform="matrix(0.530964, 0, 0, 0.531309, -11.82124, -11.653703)" fill="none" stroke-linejoin="round" d="M 138.098253 328.252711 C 153.819963 347.662311 177.847623 360.065339 204.759189 360.065339 C 231.670756 360.065339 255.705772 347.662311 271.420126 328.252711 C 256.56653 307.497673 232.244595 293.962418 204.759189 293.962418 C 177.288498 293.962418 152.966562 307.482969 138.098253 328.252711 Z M 138.098253 328.252711 " stroke="#10112b" stroke-width="1.5" stroke-opacity="1" stroke-miterlimit="10"/><path stroke-linecap="round" transform="matrix(0.530964, 0, 0, 0.531309, -11.82124, -11.653703)" fill-opacity="1" fill="#ffffff" fill-rule="nonzero" stroke-linejoin="round" d="M 197.939336 280.206599 L 197.939336 293.977122 C 197.939336 298.116366 201.294086 301.468934 205.436025 301.468934 C 209.570607 301.468934 212.932713 298.116366 212.932713 293.977122 L 212.932713 280.206599 Z M 197.939336 280.206599 " stroke="#10112b" stroke-width="1.5" stroke-opacity="1" stroke-miterlimit="10"/><path stroke-linecap="round" transform="matrix(0.530964, 0, 0, 0.531309, -11.82124, -11.653703)" fill-opacity="1" fill="#ffffff" fill-rule="nonzero" stroke-linejoin="round" d="M 177.008935 253.680146 C 177.008935 258.576659 178.16397 263.208495 180.223904 267.310979 C 185.219244 277.368681 195.614554 284.279674 207.613669 284.279674 C 224.512485 284.279674 238.211047 270.575321 238.211047 253.680146 C 238.211047 245.820729 235.238856 238.637706 230.339156 233.211841 C 224.76262 226.991946 216.640595 223.080618 207.613669 223.080618 C 190.714853 223.080618 177.008935 236.77762 177.008935 253.680146 Z M 177.008935 253.680146 " stroke="#10112b" stroke-width="1.5" stroke-opacity="1" stroke-miterlimit="10"/><path fill="#10112b" d="M 106.910156 113.839844 C 106.910156 113.839844 108.332031 119.6875 92.054688 115.058594 C 92.054688 115.058594 94.582031 119.902344 88.5 121.1875 C 88.5 121.1875 88.183594 126.371094 87.320312 127.820312 C 86.417969 129.332031 81.949219 131.367188 79.402344 126.078125 C 76.855469 120.785156 76.164062 108.367188 86.222656 108.898438 C 86.222656 108.898438 80.394531 103.730469 93.15625 101.367188 C 104.472656 99.269531 116.980469 105.011719 113.722656 112.464844 C 111.730469 117.027344 106.910156 113.839844 106.910156 113.839844 Z M 106.910156 113.839844 " fill-opacity="1" fill-rule="nonzero"/><path stroke-linecap="round" transform="matrix(0.530964, 0, 0, 0.531309, -11.82124, -11.653703)" fill="none" stroke-linejoin="round" d="M 216.184466 273.016225 C 216.184466 273.016225 218.95802 268.774051 223.489875 273.016225 " stroke="#10112b" stroke-width="1.5" stroke-opacity="1" stroke-miterlimit="10"/><path fill="#10112b" d="M 108.195312 122.519531 C 108.195312 123.261719 108.796875 123.863281 109.535156 123.863281 C 110.277344 123.863281 110.878906 123.261719 110.878906 122.519531 C 110.878906 121.777344 110.277344 121.179688 109.535156 121.179688 C 108.796875 121.179688 108.195312 121.777344 108.195312 122.519531 Z M 108.195312 122.519531 " fill-opacity="1" fill-rule="nonzero"/><path fill="#10112b" d="M 98.785156 123.445312 C 98.785156 124.1875 99.382812 124.785156 100.125 124.785156 C 100.867188 124.785156 101.464844 124.1875 101.464844 123.445312 C 101.464844 122.703125 100.867188 122.105469 100.125 122.105469 C 99.382812 122.105469 98.785156 122.703125 98.785156 123.445312 Z M 98.785156 123.445312 " fill-opacity="1" fill-rule="nonzero"/><path stroke-linecap="round" transform="matrix(0.530964, 0, 0, 0.531309, -11.82124, -11.653703)" fill="none" stroke-linejoin="round" d="M 219.840849 256.481304 C 219.840849 256.481304 225.68959 263.289369 220.753106 264.252496 " stroke="#10112b" stroke-width="1.5" stroke-opacity="1" stroke-miterlimit="10"/><path stroke-linecap="round" transform="matrix(0.530964, 0, 0, 0.531309, -11.82124, -11.653703)" fill-opacity="1" fill="#ffffff" fill-rule="nonzero" stroke-linejoin="round" d="M 190.383793 255.885783 C 187.448387 256.84891 184.284916 255.260852 183.321162 252.327356 C 182.35005 249.39386 183.946499 246.232447 186.874548 245.26932 C 189.809954 244.29884 192.973424 245.89425 193.937179 248.820394 " stroke="#10112b" stroke-width="1.5" stroke-opacity="1" stroke-miterlimit="10"/><path stroke-linecap="round" transform="matrix(0.530964, 0, 0, 0.531309, -11.82124, -11.653703)" fill="none" stroke-linejoin="round" d="M 205.921581 248.893915 C 207.304679 246.48242 210.379866 245.636926 212.792932 247.011772 " stroke="#10112b" stroke-width="1.5" stroke-opacity="1" stroke-miterlimit="10"/><path stroke-linecap="round" transform="matrix(0.530964, 0, 0, 0.531309, -11.82124, -11.653703)" fill="none" stroke-linejoin="round" d="M 224.534556 246.975012 C 226.278143 244.806136 229.44897 244.460586 231.619258 246.203039 " stroke="#10112b" stroke-width="1.5" stroke-opacity="1" stroke-miterlimit="10"/><path stroke-linecap="round" transform="matrix(0.530964, 0, 0, 0.531309, -11.82124, -11.653703)" fill-opacity="1" fill="#ffffff" fill-rule="nonzero" stroke-linejoin="round" d="M 613.729664 538.221939 C 613.729664 538.221939 584.817018 591.399831 565.644918 581.570045 C 558.964846 578.158661 547.723492 570.600681 536.460067 561.506107 C 534.135284 564.733688 531.214592 566.895212 527.543495 567.049606 C 520.502935 567.365747 517.015761 562.778024 515.603235 556.102298 C 512.99889 559.837175 509.695638 562.101629 505.502201 562.226615 C 488.456247 562.755967 491.568219 527.487842 495.879366 509.894216 C 484.998501 516.349379 473.352516 520.437158 470.468609 510.849992 C 465.524767 494.395945 496.6077 456.245788 540.697645 462.921514 C 584.780234 469.604592 613.729664 538.221939 613.729664 538.221939 Z M 613.729664 538.221939 " stroke="#10112b" stroke-width="1.5" stroke-opacity="1" stroke-miterlimit="10"/><path stroke-linecap="round" transform="matrix(0.530964, 0, 0, 0.531309, -11.82124, -11.653703)" fill-opacity="1" fill="#ffffff" fill-rule="nonzero" stroke-linejoin="round" d="M 495.879366 509.894216 C 495.879366 509.894216 513.565371 483.551566 539.888386 495.917834 " stroke="#10112b" stroke-width="1.5" stroke-opacity="1" stroke-miterlimit="10"/><path stroke-linecap="round" transform="matrix(0.530964, 0, 0, 0.531309, -11.82124, -11.653703)" fill="none" stroke-linejoin="round" d="M 515.603235 556.102298 C 515.603235 556.102298 518.457715 542.949353 516.272713 531.112438 " stroke="#10112b" stroke-width="1.5" stroke-opacity="1" stroke-miterlimit="10"/><path stroke-linecap="round" transform="matrix(0.530964, 0, 0, 0.531309, -11.82124, -11.653703)" fill-opacity="1" fill="#ffffff" fill-rule="nonzero" stroke-linejoin="round" d="M 145.469874 506.931312 C 145.469874 525.429248 151.325972 542.552339 161.265154 556.550777 C 162.324548 558.035906 163.420727 559.484274 164.568405 560.903233 C 180.290116 580.312833 204.317775 592.715861 231.229342 592.715861 C 258.140908 592.715861 282.175924 580.312833 297.890278 560.903233 C 299.045313 559.484274 300.148849 558.05061 301.19353 556.558129 C 311.147425 542.567043 316.996166 525.429248 316.996166 506.931312 C 316.996166 459.576299 278.600467 421.17617 231.229342 421.17617 C 183.858216 421.17617 145.469874 459.576299 145.469874 506.931312 Z M 145.469874 506.931312 " stroke="#10112b" stroke-width="1.5" stroke-opacity="1" stroke-miterlimit="10"/><path stroke-linecap="round" transform="matrix(0.530964, 0, 0, 0.531309, -11.82124, -11.653703)" fill-opacity="1" fill="#f15d5e" fill-rule="nonzero" stroke-linejoin="round" d="M 164.568405 560.903233 C 180.290116 580.312833 204.317775 592.715861 231.229342 592.715861 C 258.140908 592.715861 282.175924 580.312833 297.890278 560.903233 C 283.036683 540.148195 258.714747 526.61294 231.229342 526.61294 C 203.75865 526.61294 179.436715 540.140843 164.568405 560.903233 Z M 164.568405 560.903233 " stroke="#10112b" stroke-width="1.5" stroke-opacity="1" stroke-miterlimit="10"/><path stroke-linecap="round" transform="matrix(0.530964, 0, 0, 0.531309, -11.82124, -11.653703)" fill="none" stroke-linejoin="round" d="M 164.568405 560.903233 C 180.290116 580.312833 204.317775 592.715861 231.229342 592.715861 C 258.140908 592.715861 282.175924 580.312833 297.890278 560.903233 C 283.036683 540.148195 258.714747 526.61294 231.229342 526.61294 C 203.75865 526.61294 179.436715 540.140843 164.568405 560.903233 Z M 164.568405 560.903233 " stroke="#10112b" stroke-width="1.5" stroke-opacity="1" stroke-miterlimit="10"/><path fill="#10112b" d="M 104.402344 243.839844 C 104.402344 249.148438 100.101562 253.464844 94.796875 253.464844 C 89.492188 253.464844 85.179688 249.148438 85.179688 243.839844 C 85.179688 238.53125 89.492188 234.21875 94.796875 234.21875 C 100.101562 234.21875 104.402344 238.53125 104.402344 243.839844 Z M 104.402344 243.839844 " fill-opacity="1" fill-rule="nonzero"/><path stroke-linecap="round" transform="matrix(0.530964, 0, 0, 0.531309, -11.82124, -11.653703)" fill-opacity="1" fill="#ffffff" fill-rule="nonzero" stroke-linejoin="round" d="M 240.756537 517.349267 L 240.756537 525.171924 C 240.756537 530.097845 236.769093 534.082695 231.854679 534.082695 C 229.397472 534.082695 227.160972 533.082806 225.549809 531.472692 C 223.93129 529.855225 222.938107 527.642237 222.938107 525.171924 L 222.938107 518.069775 C 225.395314 518.687353 227.955518 519.010847 230.596648 519.010847 C 234.150034 519.010847 237.570996 518.422677 240.756537 517.349267 Z M 240.756537 517.349267 " stroke="#10112b" stroke-width="1.5" stroke-opacity="1" stroke-miterlimit="10"/><path stroke-linecap="round" transform="matrix(0.530964, 0, 0, 0.531309, -11.82124, -11.653703)" fill-opacity="1" fill="#ffffff" fill-rule="nonzero" stroke-linejoin="round" d="M 198.851593 487.257035 C 198.851593 492.337351 200.043412 497.138286 202.184272 501.402516 C 207.363534 511.842528 218.148761 519.010847 230.604005 519.010847 C 248.142871 519.010847 262.363773 504.791844 262.363773 487.257035 C 262.363773 479.096181 259.273872 471.64113 254.190249 466.016757 C 248.400363 459.561595 239.976704 455.495872 230.604005 455.495872 C 213.065138 455.495872 198.851593 469.714874 198.851593 487.257035 Z M 198.851593 487.257035 " stroke="#10112b" stroke-width="1.5" stroke-opacity="1" stroke-miterlimit="10"/><path stroke-linecap="round" transform="matrix(0.530964, 0, 0, 0.531309, -11.82124, -11.653703)" fill="none" stroke-linejoin="round" d="M 247.083477 505.36531 C 247.083477 505.36531 244.206926 509.761878 239.505862 505.36531 " stroke="#10112b" stroke-width="1.5" stroke-opacity="1" stroke-miterlimit="10"/><path fill="#10112b" d="M 123.695312 247.835938 C 123.695312 248.605469 124.316406 249.226562 125.085938 249.226562 C 125.855469 249.226562 126.476562 248.605469 126.476562 247.835938 C 126.476562 247.0625 125.855469 246.441406 125.085938 246.441406 C 124.316406 246.441406 123.695312 247.0625 123.695312 247.835938 Z M 123.695312 247.835938 " fill-opacity="1" fill-rule="nonzero"/><path fill="#10112b" d="M 111.457031 249.03125 C 111.457031 249.800781 112.078125 250.421875 112.847656 250.421875 C 113.617188 250.421875 114.238281 249.800781 114.238281 249.03125 C 114.238281 248.257812 113.617188 247.636719 112.847656 247.636719 C 112.078125 247.636719 111.457031 248.257812 111.457031 249.03125 Z M 111.457031 249.03125 " fill-opacity="1" fill-rule="nonzero"/><path stroke-linecap="round" transform="matrix(0.530964, 0, 0, 0.531309, -11.82124, -11.653703)" fill="none" stroke-linejoin="round" d="M 244.795479 490.161123 C 244.795479 490.161123 250.872284 497.226512 245.751877 498.2264 " stroke="#10112b" stroke-width="1.5" stroke-opacity="1" stroke-miterlimit="10"/><path stroke-linecap="round" transform="matrix(0.530964, 0, 0, 0.531309, -11.82124, -11.653703)" fill="none" stroke-linejoin="round" d="M 267.896167 486.661513 C 267.896167 491.940336 263.614447 496.226623 258.332188 496.226623 C 253.035215 496.226623 248.753495 491.940336 248.753495 486.661513 C 248.753495 481.360634 253.035215 477.074348 258.332188 477.074348 C 263.614447 477.074348 267.896167 481.360634 267.896167 486.661513 Z M 267.896167 486.661513 " stroke="#10112b" stroke-width="1.5" stroke-opacity="1" stroke-miterlimit="10"/><path stroke-linecap="round" transform="matrix(0.530964, 0, 0, 0.531309, -11.82124, -11.653703)" fill="none" stroke-linejoin="round" d="M 241.426015 488.029008 C 241.426015 493.315183 237.144295 497.594118 231.862036 497.594118 C 226.565062 497.594118 222.275985 493.315183 222.275985 488.029008 C 222.275985 482.735481 226.565062 478.449194 231.862036 478.449194 C 237.144295 478.449194 241.426015 482.735481 241.426015 488.029008 Z M 241.426015 488.029008 " stroke="#10112b" stroke-width="1.5" stroke-opacity="1" stroke-miterlimit="10"/><path stroke-linecap="round" transform="matrix(0.530964, 0, 0, 0.531309, -11.82124, -11.653703)" fill="none" stroke-linejoin="round" d="M 207.481245 483.029566 L 222.298056 487.543768 " stroke="#10112b" stroke-width="1.5" stroke-opacity="1" stroke-miterlimit="10"/><path stroke-linecap="round" transform="matrix(0.530964, 0, 0, 0.531309, -11.82124, -11.653703)" fill="none" stroke-linejoin="round" d="M 240.550543 484.036806 C 240.550543 484.036806 245.935799 481.772353 248.753495 484.036806 " stroke="#10112b" stroke-width="1.5" stroke-opacity="1" stroke-miterlimit="10"/><path fill="#10112b" d="M 127.796875 233.75 C 127.796875 234.132812 127.753906 234.511719 127.664062 234.882812 C 127.578125 235.257812 127.449219 235.621094 127.273438 235.976562 C 127.101562 236.328125 126.890625 236.664062 126.640625 236.980469 C 126.390625 237.296875 126.105469 237.589844 125.785156 237.859375 C 125.46875 238.128906 125.121094 238.371094 124.746094 238.582031 C 124.371094 238.792969 123.976562 238.972656 123.558594 239.121094 C 123.144531 239.265625 122.714844 239.375 122.269531 239.449219 C 121.828125 239.523438 121.382812 239.5625 120.933594 239.5625 C 120.480469 239.5625 120.035156 239.523438 119.59375 239.449219 C 119.148438 239.375 118.722656 239.265625 118.304688 239.121094 C 117.886719 238.972656 117.492188 238.792969 117.117188 238.582031 C 116.742188 238.371094 116.394531 238.128906 116.078125 237.859375 C 115.757812 237.589844 115.472656 237.296875 115.222656 236.980469 C 114.972656 236.664062 114.761719 236.328125 114.589844 235.976562 C 114.417969 235.621094 114.285156 235.257812 114.199219 234.882812 C 114.109375 234.511719 114.066406 234.132812 114.066406 233.75 C 114.066406 233.371094 114.109375 232.992188 114.199219 232.617188 C 114.285156 232.242188 114.417969 231.878906 114.589844 231.527344 C 114.761719 231.175781 114.972656 230.839844 115.222656 230.523438 C 115.472656 230.207031 115.757812 229.910156 116.078125 229.640625 C 116.394531 229.371094 116.742188 229.132812 117.117188 228.917969 C 117.492188 228.707031 117.886719 228.527344 118.304688 228.382812 C 118.722656 228.238281 119.148438 228.125 119.59375 228.050781 C 120.035156 227.976562 120.480469 227.941406 120.933594 227.941406 C 121.382812 227.941406 121.828125 227.976562 122.269531 228.050781 C 122.714844 228.125 123.144531 228.238281 123.558594 228.382812 C 123.976562 228.527344 124.371094 228.707031 124.746094 228.917969 C 125.121094 229.132812 125.46875 229.371094 125.785156 229.640625 C 126.105469 229.910156 126.390625 230.207031 126.640625 230.523438 C 126.890625 230.839844 127.101562 231.175781 127.273438 231.527344 C 127.449219 231.878906 127.578125 232.242188 127.664062 232.617188 C 127.753906 232.992188 127.796875 233.371094 127.796875 233.75 Z M 127.796875 233.75 " fill-opacity="1" fill-rule="nonzero"/><path fill="#10112b" d="M 118.449219 232.046875 C 118.449219 232.703125 118.367188 233.355469 118.207031 234.003906 C 118.046875 234.648438 117.808594 235.273438 117.492188 235.882812 C 117.175781 236.492188 116.785156 237.070312 116.324219 237.617188 C 115.867188 238.164062 115.34375 238.671875 114.757812 239.136719 C 114.175781 239.601562 113.539062 240.019531 112.851562 240.382812 C 112.160156 240.75 111.4375 241.058594 110.671875 241.3125 C 109.90625 241.5625 109.121094 241.753906 108.308594 241.882812 C 107.496094 242.011719 106.675781 242.074219 105.851562 242.074219 C 105.023438 242.074219 104.203125 242.011719 103.390625 241.882812 C 102.582031 241.753906 101.792969 241.5625 101.027344 241.3125 C 100.265625 241.058594 99.539062 240.75 98.851562 240.382812 C 98.160156 240.019531 97.527344 239.601562 96.941406 239.136719 C 96.355469 238.671875 95.832031 238.164062 95.375 237.617188 C 94.914062 237.070312 94.527344 236.492188 94.210938 235.882812 C 93.894531 235.273438 93.652344 234.648438 93.492188 234.003906 C 93.332031 233.355469 93.25 232.703125 93.25 232.046875 C 93.25 231.386719 93.332031 230.734375 93.492188 230.089844 C 93.652344 229.441406 93.894531 228.816406 94.210938 228.207031 C 94.527344 227.597656 94.914062 227.023438 95.375 226.472656 C 95.832031 225.925781 96.355469 225.421875 96.941406 224.953125 C 97.527344 224.488281 98.160156 224.074219 98.851562 223.707031 C 99.539062 223.339844 100.265625 223.03125 101.027344 222.78125 C 101.792969 222.527344 102.582031 222.339844 103.390625 222.210938 C 104.203125 222.082031 105.023438 222.015625 105.851562 222.015625 C 106.675781 222.015625 107.496094 222.082031 108.308594 222.210938 C 109.121094 222.339844 109.90625 222.527344 110.671875 222.78125 C 111.4375 223.03125 112.160156 223.339844 112.851562 223.707031 C 113.539062 224.074219 114.175781 224.488281 114.757812 224.953125 C 115.34375 225.421875 115.867188 225.925781 116.324219 226.472656 C 116.785156 227.023438 117.175781 227.597656 117.492188 228.207031 C 117.808594 228.816406 118.046875 229.441406 118.207031 230.089844 C 118.367188 230.734375 118.449219 231.386719 118.449219 232.046875 Z M 118.449219 232.046875 " fill-opacity="1" fill-rule="nonzero"/><path fill="#10112b" d="M 101.511719 243.371094 C 101.511719 247.300781 98.324219 250.496094 94.398438 250.496094 C 90.46875 250.496094 87.277344 247.300781 87.277344 243.371094 C 87.277344 239.441406 90.46875 236.246094 94.398438 236.246094 C 98.324219 236.246094 101.511719 239.441406 101.511719 243.371094 Z M 101.511719 243.371094 " fill-opacity="1" fill-rule="nonzero"/><path stroke-linecap="round" transform="matrix(0.530964, 0, 0, 0.531309, -11.82124, -11.653703)" fill-opacity="1" fill="#ffffff" fill-rule="nonzero" stroke-linejoin="round" d="M 203.405518 495.961947 C 199.646139 495.388481 197.063864 491.866815 197.637703 488.109881 C 198.218899 484.352947 201.7355 481.772353 205.49488 482.345818 C 209.246903 482.926636 211.829177 486.448302 211.247982 490.197884 " stroke="#10112b" stroke-width="1.5" stroke-opacity="1" stroke-miterlimit="10"/><path stroke-linecap="round" transform="matrix(0.530964, 0, 0, 0.531309, -11.82124, -11.653703)" fill="none" stroke-linejoin="round" d="M 262.172494 483.77213 L 267.594534 484.25737 " stroke="#10112b" stroke-width="1.5" stroke-opacity="1" stroke-miterlimit="10"/><path stroke-linecap="round" transform="matrix(0.530964, 0, 0, 0.531309, -11.82124, -11.653703)" fill-opacity="1" fill="#ffffff" fill-rule="nonzero" stroke-linejoin="round" d="M 298.486188 376.886993 C 298.486188 393.635125 303.790518 409.1481 312.795372 421.823157 C 313.75177 423.175947 314.744953 424.484625 315.789634 425.771246 C 330.032606 443.350168 351.794338 454.584209 376.167772 454.584209 C 400.548562 454.584209 422.317651 443.350168 436.545909 425.771246 C 437.59059 424.484625 438.598486 423.183299 439.540171 421.837861 C 448.559739 409.155452 453.856712 393.635125 453.856712 376.886993 C 453.856712 333.987366 419.073255 299.20448 376.167772 299.20448 C 333.262288 299.20448 298.486188 333.987366 298.486188 376.886993 Z M 298.486188 376.886993 " stroke="#10112b" stroke-width="1.5" stroke-opacity="1" stroke-miterlimit="10"/><path stroke-linecap="round" transform="matrix(0.530964, 0, 0, 0.531309, -11.82124, -11.653703)" fill-opacity="1" fill="#f78e34" fill-rule="nonzero" stroke-linejoin="round" d="M 315.789634 425.771246 C 330.032606 443.350168 351.794338 454.584209 376.167772 454.584209 C 400.548562 454.584209 422.317651 443.350168 436.545909 425.771246 C 423.097483 406.971872 401.063546 394.708534 376.167772 394.708534 C 351.286711 394.708534 329.252774 406.957168 315.789634 425.771246 Z M 315.789634 425.771246 " stroke="#10112b" stroke-width="1.5" stroke-opacity="1" stroke-miterlimit="10"/><path stroke-linecap="round" transform="matrix(0.530964, 0, 0, 0.531309, -11.82124, -11.653703)" fill="none" stroke-linejoin="round" d="M 315.789634 425.771246 C 330.032606 443.350168 351.794338 454.584209 376.167772 454.584209 C 400.548562 454.584209 422.317651 443.350168 436.545909 425.771246 C 423.097483 406.971872 401.063546 394.708534 376.167772 394.708534 C 351.286711 394.708534 329.252774 406.957168 315.789634 425.771246 Z M 315.789634 425.771246 " stroke="#10112b" stroke-width="1.5" stroke-opacity="1" stroke-miterlimit="10"/><path stroke-linecap="round" transform="matrix(0.530964, 0, 0, 0.531309, -11.82124, -11.653703)" fill-opacity="1" fill="#ffffff" fill-rule="nonzero" stroke-linejoin="round" d="M 369.987969 382.246689 L 369.987969 394.723238 C 369.987969 398.47282 373.033729 401.516598 376.778395 401.516598 C 380.530418 401.516598 383.56882 398.47282 383.56882 394.723238 L 383.56882 382.246689 Z M 369.987969 382.246689 " stroke="#10112b" stroke-width="1.5" stroke-opacity="1" stroke-miterlimit="10"/><path stroke-linecap="round" transform="matrix(0.530964, 0, 0, 0.531309, -11.82124, -11.653703)" fill-opacity="1" fill="#ffffff" fill-rule="nonzero" stroke-linejoin="round" d="M 351.036576 358.219957 C 351.036576 362.660638 352.081257 366.851347 353.942555 370.564168 C 358.467053 379.680799 367.883894 385.937454 378.750046 385.937454 C 394.05977 385.937454 406.470872 373.527073 406.470872 358.219957 C 406.470872 351.103104 403.778244 344.596476 399.342029 339.685259 C 394.287834 334.046183 386.930927 330.50246 378.750046 330.50246 C 363.447679 330.50246 351.036576 342.912841 351.036576 358.219957 Z M 351.036576 358.219957 " stroke="#10112b" stroke-width="1.5" stroke-opacity="1" stroke-miterlimit="10"/><path stroke-linecap="round" transform="matrix(0.530964, 0, 0, 0.531309, -11.82124, -11.653703)" fill="none" stroke-linejoin="round" d="M 393.140157 374.027017 C 393.140157 374.027017 390.624094 377.872177 386.51894 374.027017 " stroke="#10112b" stroke-width="1.5" stroke-opacity="1" stroke-miterlimit="10"/><path fill="#10112b" d="M 198.125 178.4375 C 198.125 179.109375 198.667969 179.652344 199.339844 179.652344 C 200.007812 179.652344 200.550781 179.109375 200.550781 178.4375 C 200.550781 177.765625 200.007812 177.222656 199.339844 177.222656 C 198.667969 177.222656 198.125 177.765625 198.125 178.4375 Z M 198.125 178.4375 " fill-opacity="1" fill-rule="nonzero"/><path fill="#10112b" d="M 189.636719 178.949219 C 189.636719 179.621094 190.179688 180.164062 190.851562 180.164062 C 191.523438 180.164062 192.066406 179.621094 192.066406 178.949219 C 192.066406 178.277344 191.523438 177.734375 190.851562 177.734375 C 190.179688 177.734375 189.636719 178.277344 189.636719 178.949219 Z M 189.636719 178.949219 " fill-opacity="1" fill-rule="nonzero"/><path stroke-linecap="round" transform="matrix(0.530964, 0, 0, 0.531309, -11.82124, -11.653703)" fill="none" stroke-linejoin="round" d="M 389.829548 360.756439 C 389.829548 360.756439 395.126522 366.924868 390.660879 367.799771 " stroke="#10112b" stroke-width="1.5" stroke-opacity="1" stroke-miterlimit="10"/><path fill="#10112b" d="M 205.125 166.039062 C 204.984375 171.0625 201.777344 172.582031 198.621094 172.582031 C 196.953125 172.582031 195.457031 171.785156 194.378906 170.535156 C 193.402344 171.265625 192.1875 171.71875 190.871094 171.71875 C 188.71875 171.71875 186.878906 170.601562 185.902344 168.898438 C 184.929688 170.601562 183.054688 171.71875 180.9375 171.71875 C 179.898438 171.71875 178.921875 171.457031 178.085938 170.992188 C 181.765625 176.082031 180.425781 181.902344 177.355469 187.976562 C 171.183594 182.675781 170.480469 161.273438 180.9375 160.519531 C 183.050781 160.367188 184.898438 161.671875 185.902344 163.339844 C 186.878906 161.671875 188.71875 160.519531 190.871094 160.519531 C 192.1875 160.519531 193.402344 160.972656 194.378906 161.738281 C 195.457031 160.453125 196.953125 159.65625 198.621094 159.65625 C 201.777344 159.65625 205.265625 161.046875 205.125 166.039062 Z M 205.125 166.039062 " fill-opacity="1" fill-rule="nonzero"/><path fill="#10112b" d="M 182.617188 172.007812 C 182.617188 173.808594 181.164062 175.265625 179.359375 175.265625 C 177.558594 175.265625 176.097656 173.808594 176.097656 172.007812 C 176.097656 170.203125 177.558594 168.742188 179.359375 168.742188 C 181.164062 168.742188 182.617188 170.203125 182.617188 172.007812 Z M 182.617188 172.007812 " fill-opacity="1" fill-rule="nonzero"/><path stroke-linecap="round" transform="matrix(0.530964, 0, 0, 0.531309, -11.82124, -11.653703)" fill-opacity="1" fill="#ffffff" fill-rule="nonzero" stroke-linejoin="round" d="M 362.520709 360.506467 C 359.872222 361.381369 357.003028 359.940353 356.127556 357.278885 C 355.252084 354.62477 356.694038 351.757442 359.349882 350.88254 C 362.005725 350.007638 364.867562 351.456005 365.743034 354.110121 " stroke="#10112b" stroke-width="1.5" stroke-opacity="1" stroke-miterlimit="10"/><path stroke-linecap="round" transform="matrix(0.530964, 0, 0, 0.531309, -11.82124, -11.653703)" fill="none" stroke-linejoin="round" d="M 377.631796 352.735275 L 384.672356 352.735275 " stroke="#10112b" stroke-width="1.5" stroke-opacity="1" stroke-miterlimit="10"/><path stroke-linecap="round" transform="matrix(0.530964, 0, 0, 0.531309, -11.82124, -11.653703)" fill="none" stroke-linejoin="round" d="M 394.626252 352.735275 L 401.674169 352.735275 " stroke="#10112b" stroke-width="1.5" stroke-opacity="1" stroke-miterlimit="10"/><path stroke-linecap="round" transform="matrix(0.530964, 0, 0, 0.531309, -11.82124, -11.653703)" fill-opacity="1" fill="#888ac3" fill-rule="nonzero" stroke-linejoin="round" d="M 400.254286 252.011215 C 331.275923 238.350974 264.283926 283.184208 250.629506 352.154457 C 236.967729 421.117353 281.800722 488.109881 350.771728 501.777475 C 419.735376 515.445068 486.727374 470.604481 500.389151 401.641584 C 514.050927 332.671336 469.217934 265.678808 400.254286 252.011215 Z M 469.034012 395.42169 C 458.807911 447.077693 408.633803 480.662183 356.988314 470.42803 C 305.328112 460.193877 271.736473 410.01565 281.977288 358.366999 C 292.210746 306.703644 342.384853 273.133859 394.045056 283.360659 C 445.690545 293.594812 479.26747 343.765687 469.034012 395.42169 Z M 469.034012 395.42169 " stroke="#10112b" stroke-width="1.5" stroke-opacity="1" stroke-miterlimit="10"/><path stroke-linecap="round" transform="matrix(0.530964, 0, 0, 0.531309, -11.82124, -11.653703)" fill-opacity="1" fill="#888ac3" fill-rule="nonzero" stroke-linejoin="round" d="M 477.119253 453.643137 L 576.967198 552.786491 C 583.823836 559.64602 583.816479 570.784484 576.959841 577.644013 C 573.531522 581.070101 569.029095 582.790498 564.534025 582.783145 C 560.038955 582.790498 555.543884 581.077453 552.108209 577.644013 L 452.245549 478.478603 C 461.588822 471.420566 469.975696 463.075909 477.119253 453.643137 Z M 477.119253 453.643137 " stroke="#10112b" stroke-width="1.5" stroke-opacity="1" stroke-miterlimit="10"/><path stroke-linecap="round" transform="matrix(0.530964, 0, 0, 0.531309, -11.82124, -11.653703)" fill-opacity="1" fill="#ffffff" fill-rule="nonzero" stroke-linejoin="round" d="M 570.139988 531.075677 C 543.669836 531.619734 516.809768 494.697382 503.089136 511.18819 C 502.809573 511.519035 502.566795 511.857233 502.360802 512.210135 C 498.851557 517.834507 502.390229 526.157108 509.401362 535.148753 C 523.828257 553.698154 552.983681 575.100179 565.637561 581.577398 C 565.637561 581.577398 586.751885 585.113768 594.800341 565.167463 " stroke="#10112b" stroke-width="1.5" stroke-opacity="1" stroke-miterlimit="10"/><path fill="#10112b" d="M 261.242188 268.375 C 260.949219 270.15625 259.988281 271.664062 258.652344 272.675781 C 254.929688 267.898438 253.050781 263.476562 254.914062 260.488281 C 255.160156 260.496094 255.40625 260.527344 255.65625 260.566406 C 259.355469 261.179688 261.855469 264.671875 261.242188 268.375 Z M 261.242188 268.375 " fill-opacity="1" fill-rule="nonzero"/><g clip-path="url(#0015cab162)"><path fill="#2dbec0" d="M 314.183594 266.582031 L 287.292969 300.074219 C 286.574219 300.96875 286.777344 302.289062 287.734375 302.925781 L 302.078125 312.472656 C 303.066406 313.132812 304.410156 312.761719 304.921875 311.691406 L 323.023438 273.957031 C 323.390625 273.191406 323.222656 272.277344 322.609375 271.695312 L 317.058594 266.394531 C 316.230469 265.601562 314.902344 265.6875 314.183594 266.582031 Z M 314.183594 266.582031 " fill-opacity="1" fill-rule="nonzero"/></g><g clip-path="url(#9d6ab00014)"><path stroke-linecap="round" transform="matrix(0.530964, 0, 0, 0.531309, -11.82124, -11.653703)" fill="none" stroke-linejoin="round" d="M 613.987156 523.679444 L 563.342206 586.71653 C 561.988535 588.400166 562.371094 590.885183 564.173536 592.083579 L 591.1881 610.052163 C 593.049397 611.294671 595.580174 610.59622 596.543928 608.581739 L 630.635837 537.560248 C 631.327386 536.119233 631.011039 534.398836 629.856004 533.30337 L 619.401839 523.326542 C 617.842175 521.834061 615.340826 521.995808 613.987156 523.679444 Z M 613.987156 523.679444 " stroke="#10112b" stroke-width="1.5" stroke-opacity="1" stroke-miterlimit="10"/></g><path stroke-linecap="round" transform="matrix(0.530964, 0, 0, 0.531309, -11.82124, -11.653703)" fill="none" stroke-linejoin="round" d="M 555.742521 205.442879 L 485.844545 267.3845 " stroke="#10112b" stroke-width="1.5" stroke-opacity="1" stroke-miterlimit="10"/><path stroke-linecap="round" transform="matrix(0.530964, 0, 0, 0.531309, -11.82124, -11.653703)" fill="none" stroke-linejoin="round" d="M 590.342056 174.777182 L 580.380803 183.607079 " stroke="#10112b" stroke-width="1.5" stroke-opacity="1" stroke-miterlimit="10"/><path stroke-linecap="round" transform="matrix(0.530964, 0, 0, 0.531309, -11.82124, -11.653703)" fill="none" stroke-linejoin="round" d="M 480.569642 200.266986 L 467.974617 250.496678 " stroke="#10112b" stroke-width="1.5" stroke-opacity="1" stroke-miterlimit="10"/><path stroke-linecap="round" transform="matrix(0.530964, 0, 0, 0.531309, -11.82124, -11.653703)" fill="none" stroke-linejoin="round" d="M 493.069028 156.264541 L 489.831989 167.660329 " stroke="#10112b" stroke-width="1.5" stroke-opacity="1" stroke-miterlimit="10"/><path stroke-linecap="round" transform="matrix(0.530964, 0, 0, 0.531309, -11.82124, -11.653703)" fill="none" stroke-linejoin="round" d="M 554.315281 283.992942 L 500.359723 288.271876 " stroke="#10112b" stroke-width="1.5" stroke-opacity="1" stroke-miterlimit="10"/><path stroke-linecap="round" transform="matrix(0.530964, 0, 0, 0.531309, -11.82124, -11.653703)" fill="none" stroke-linejoin="round" d="M 595.124045 280.750656 L 584.559526 281.588798 " stroke="#10112b" stroke-width="1.5" stroke-opacity="1" stroke-miterlimit="10"/><path stroke-linecap="round" transform="matrix(0.530964, 0, 0, 0.531309, -11.82124, -11.653703)" fill="none" stroke-linejoin="round" d="M 355.185872 532.325538 C 348.961928 535.648697 343.937161 541.17014 341.215105 547.684119 C 337.095237 557.543314 338.669615 569.740483 345.732246 577.761647 C 352.794877 585.775459 365.198623 588.833941 374.90974 584.363852 C 384.613501 579.893762 395.435512 564.527829 387.203132 557.712412 C 382.281361 553.639337 374.225548 560.212134 370.892869 565.660055 C 367.56019 571.107977 367.714685 578.489507 371.260714 583.797738 C 373.607568 587.319404 377.234523 589.848534 381.141041 591.480705 C 391.830627 595.950794 405.028919 593.620172 413.533503 585.753402 C 422.045445 577.893985 432.220048 558.947569 421.787953 553.911366 C 416.115778 551.169025 411.216078 561.395825 409.803551 567.534846 C 408.391025 573.681219 410.274394 580.481932 414.644396 585.025542 C 420.228289 590.833718 428.872655 592.524706 436.935825 592.546762 " stroke="#f78e34" stroke-width="3" stroke-opacity="1" stroke-miterlimit="10"/><g clip-path="url(#1e755686e3)"><path stroke-linecap="round" transform="matrix(0.530964, 0, 0, 0.531309, -11.82124, -11.653703)" fill="none" stroke-linejoin="round" d="M 406.978499 139.332606 C 397.274738 139.237028 387.504766 143.280695 381.457388 150.868084 C 372.901305 161.587477 369.355275 185.452462 382.722776 188.518296 C 390.719734 190.356327 396.171202 178.16651 396.848038 169.998303 C 397.524873 161.830097 393.096015 153.456031 385.967172 149.405012 C 381.236681 146.72884 375.62336 145.920106 370.20132 146.295065 C 355.362438 147.331714 341.575594 157.617331 336.352189 171.542249 C 331.128785 185.467166 330.378381 213.067029 345.24669 212.824409 C 353.339288 212.699423 353.067083 198.149575 351.139573 190.290158 C 349.212063 182.43074 343.135258 175.710901 335.498788 173.020025 C 325.743529 169.579232 314.855306 172.62301 305.600317 177.254847 " stroke="#f38fbb" stroke-width="3" stroke-opacity="1" stroke-miterlimit="10"/></g><path stroke-linecap="round" transform="matrix(0.530964, 0, 0, 0.531309, -11.82124, -11.653703)" fill-opacity="1" fill="#ffffff" fill-rule="nonzero" stroke-linejoin="round" d="M 592.225424 586.128361 C 592.225424 586.782699 592.100356 587.40763 591.850222 588.017856 C 591.600087 588.62073 591.246955 589.157435 590.78347 589.620618 C 590.319985 590.083802 589.782931 590.436704 589.179664 590.686676 C 588.569041 590.936648 587.943704 591.061634 587.288939 591.061634 C 586.634174 591.061634 586.00148 590.936648 585.398214 590.686676 C 584.787591 590.436704 584.257893 590.083802 583.794408 589.620618 C 583.330923 589.157435 582.970435 588.62073 582.7203 588.017856 C 582.470165 587.40763 582.345097 586.782699 582.345097 586.128361 C 582.345097 585.46667 582.470165 584.841739 582.7203 584.231513 C 582.970435 583.628639 583.330923 583.091935 583.794408 582.628751 C 584.257893 582.165567 584.787591 581.812665 585.398214 581.562693 C 586.00148 581.312721 586.634174 581.187735 587.288939 581.187735 C 587.943704 581.187735 588.569041 581.312721 589.179664 581.562693 C 589.782931 581.812665 590.319985 582.165567 590.78347 582.628751 C 591.239598 583.091935 591.600087 583.628639 591.850222 584.231513 C 592.100356 584.841739 592.225424 585.46667 592.225424 586.128361 Z M 592.225424 586.128361 " stroke="#10112b" stroke-width="1.5" stroke-opacity="1" stroke-miterlimit="10"/><g fill="#ffffff" fill-opacity="1"><g transform="translate(0.0000045, 374.366658)"><g><path d="M 0.65625 -0.21875 C 0.65625 -0.144531 0.632812 -0.0859375 0.59375 -0.046875 C 0.550781 -0.015625 0.492188 0 0.421875 0 C 0.335938 0 0.273438 -0.0234375 0.234375 -0.078125 C 0.203125 -0.128906 0.1875 -0.191406 0.1875 -0.265625 L 0.1875 -1.1875 L 0.421875 -1.1875 L 0.421875 -0.421875 C 0.429688 -0.421875 0.441406 -0.421875 0.453125 -0.421875 C 0.492188 -0.421875 0.535156 -0.40625 0.578125 -0.375 C 0.628906 -0.34375 0.65625 -0.289062 0.65625 -0.21875 Z M 0.5 -0.25 C 0.488281 -0.269531 0.46875 -0.28125 0.4375 -0.28125 C 0.414062 -0.28125 0.394531 -0.269531 0.375 -0.25 C 0.363281 -0.238281 0.359375 -0.222656 0.359375 -0.203125 C 0.359375 -0.179688 0.363281 -0.160156 0.375 -0.140625 C 0.394531 -0.128906 0.414062 -0.125 0.4375 -0.125 C 0.46875 -0.125 0.488281 -0.128906 0.5 -0.140625 C 0.507812 -0.160156 0.515625 -0.179688 0.515625 -0.203125 C 0.515625 -0.222656 0.507812 -0.238281 0.5 -0.25 Z M 0.5 -0.25 "/></g></g></g><g fill="#ffffff" fill-opacity="1"><g transform="translate(0.720011, 374.366658)"><g><path d="M 0.0625 -0.984375 C 0.0625 -1.035156 0.078125 -1.082031 0.109375 -1.125 C 0.148438 -1.175781 0.210938 -1.203125 0.296875 -1.203125 C 0.390625 -1.203125 0.453125 -1.175781 0.484375 -1.125 C 0.523438 -1.070312 0.546875 -1.007812 0.546875 -0.9375 L 0.546875 -0.53125 L 0.734375 -1.1875 L 0.890625 -1.1875 L 1.09375 -0.53125 L 1.09375 -1.1875 L 1.328125 -1.1875 L 1.328125 0 L 1.09375 0 L 0.8125 -0.890625 L 0.546875 0 L 0.3125 0 L 0.3125 -0.765625 C 0.3125 -0.765625 0.300781 -0.765625 0.28125 -0.765625 C 0.21875 -0.765625 0.164062 -0.785156 0.125 -0.828125 C 0.0820312 -0.867188 0.0625 -0.921875 0.0625 -0.984375 Z M 0.34375 -1.03125 C 0.332031 -1.050781 0.3125 -1.0625 0.28125 -1.0625 C 0.257812 -1.0625 0.242188 -1.050781 0.234375 -1.03125 C 0.222656 -1.019531 0.21875 -1.003906 0.21875 -0.984375 C 0.21875 -0.960938 0.222656 -0.941406 0.234375 -0.921875 C 0.242188 -0.910156 0.257812 -0.90625 0.28125 -0.90625 C 0.3125 -0.90625 0.332031 -0.910156 0.34375 -0.921875 C 0.351562 -0.941406 0.359375 -0.960938 0.359375 -0.984375 C 0.359375 -1.003906 0.351562 -1.019531 0.34375 -1.03125 Z M 0.34375 -1.03125 "/></g></g></g><g fill="#ffffff" fill-opacity="1"><g transform="translate(2.224021, 374.366658)"><g><path d="M -0.15625 -1.28125 C -0.195312 -1.320312 -0.269531 -1.359375 -0.375 -1.390625 C -0.488281 -1.421875 -0.613281 -1.4375 -0.75 -1.4375 C -0.800781 -1.4375 -0.847656 -1.429688 -0.890625 -1.421875 C -0.929688 -1.421875 -0.96875 -1.414062 -1 -1.40625 C -1.03125 -1.40625 -1.054688 -1.398438 -1.078125 -1.390625 C -1.097656 -1.378906 -1.113281 -1.375 -1.125 -1.375 L -1.140625 -1.359375 C -1.140625 -1.441406 -1.117188 -1.515625 -1.078125 -1.578125 C -1.046875 -1.648438 -0.992188 -1.707031 -0.921875 -1.75 C -0.847656 -1.800781 -0.757812 -1.828125 -0.65625 -1.828125 C -0.570312 -1.828125 -0.492188 -1.804688 -0.421875 -1.765625 C -0.347656 -1.722656 -0.289062 -1.671875 -0.25 -1.609375 C -0.21875 -1.546875 -0.191406 -1.484375 -0.171875 -1.421875 C -0.160156 -1.367188 -0.15625 -1.320312 -0.15625 -1.28125 Z M -0.359375 -1.5 C -0.378906 -1.539062 -0.414062 -1.582031 -0.46875 -1.625 C -0.519531 -1.675781 -0.582031 -1.703125 -0.65625 -1.703125 C -0.707031 -1.703125 -0.753906 -1.691406 -0.796875 -1.671875 C -0.835938 -1.648438 -0.863281 -1.628906 -0.875 -1.609375 C -0.894531 -1.585938 -0.90625 -1.570312 -0.90625 -1.5625 L -0.921875 -1.53125 C -0.867188 -1.539062 -0.796875 -1.546875 -0.703125 -1.546875 C -0.648438 -1.546875 -0.59375 -1.539062 -0.53125 -1.53125 C -0.476562 -1.53125 -0.4375 -1.523438 -0.40625 -1.515625 Z M -0.359375 -1.5 "/></g></g></g><g fill="#ffffff" fill-opacity="1"><g transform="translate(2.220021, 374.366658)"><g><path d="M -0.40625 -1.984375 L -0.40625 -2.390625 L -0.1875 -2.390625 L -0.1875 -1.984375 Z M -0.40625 -1.984375 "/></g></g></g><g fill="#ffffff" fill-opacity="1"><g transform="translate(2.224021, 374.366658)"><g><path d="M 0.15625 -0.984375 C 0.15625 -1.035156 0.171875 -1.082031 0.203125 -1.125 C 0.242188 -1.175781 0.304688 -1.203125 0.390625 -1.203125 C 0.484375 -1.203125 0.546875 -1.175781 0.578125 -1.125 C 0.617188 -1.070312 0.640625 -1.007812 0.640625 -0.9375 L 0.640625 -0.625 C 0.648438 -0.625 0.660156 -0.617188 0.671875 -0.609375 C 0.679688 -0.609375 0.703125 -0.59375 0.734375 -0.5625 C 0.765625 -0.539062 0.800781 -0.507812 0.84375 -0.46875 C 0.863281 -0.445312 0.890625 -0.410156 0.921875 -0.359375 C 0.953125 -0.304688 0.976562 -0.269531 1 -0.25 C 1.007812 -0.25 1.015625 -0.253906 1.015625 -0.265625 C 1.023438 -0.273438 1.03125 -0.289062 1.03125 -0.3125 L 1.03125 -1.1875 L 1.265625 -1.1875 L 1.265625 -0.21875 C 1.265625 -0.113281 1.234375 -0.046875 1.171875 -0.015625 C 1.128906 -0.00390625 1.09375 0 1.0625 0 C 0.957031 0 0.875 -0.0625 0.8125 -0.1875 C 0.78125 -0.25 0.75 -0.296875 0.71875 -0.328125 C 0.695312 -0.359375 0.679688 -0.378906 0.671875 -0.390625 L 0.640625 -0.40625 L 0.640625 -0.21875 C 0.640625 -0.175781 0.628906 -0.140625 0.609375 -0.109375 C 0.597656 -0.078125 0.578125 -0.0507812 0.546875 -0.03125 C 0.515625 -0.0195312 0.484375 -0.0078125 0.453125 0 C 0.429688 0.0078125 0.40625 0.015625 0.375 0.015625 C 0.320312 0.015625 0.273438 0.00390625 0.234375 -0.015625 C 0.203125 -0.0351562 0.175781 -0.0625 0.15625 -0.09375 C 0.144531 -0.132812 0.132812 -0.171875 0.125 -0.203125 C 0.113281 -0.234375 0.109375 -0.265625 0.109375 -0.296875 C 0.109375 -0.359375 0.113281 -0.410156 0.125 -0.453125 C 0.144531 -0.492188 0.164062 -0.523438 0.1875 -0.546875 C 0.21875 -0.566406 0.25 -0.582031 0.28125 -0.59375 C 0.3125 -0.613281 0.335938 -0.625 0.359375 -0.625 C 0.378906 -0.632812 0.394531 -0.640625 0.40625 -0.640625 L 0.40625 -0.765625 C 0.40625 -0.765625 0.398438 -0.765625 0.390625 -0.765625 C 0.328125 -0.765625 0.269531 -0.785156 0.21875 -0.828125 C 0.175781 -0.867188 0.15625 -0.921875 0.15625 -0.984375 Z M 0.375 -0.46875 C 0.34375 -0.46875 0.316406 -0.445312 0.296875 -0.40625 C 0.285156 -0.363281 0.28125 -0.320312 0.28125 -0.28125 C 0.28125 -0.25 0.285156 -0.21875 0.296875 -0.1875 C 0.304688 -0.164062 0.328125 -0.15625 0.359375 -0.15625 C 0.390625 -0.15625 0.40625 -0.179688 0.40625 -0.234375 L 0.40625 -0.453125 C 0.394531 -0.460938 0.382812 -0.46875 0.375 -0.46875 Z M 0.4375 -1.03125 C 0.425781 -1.050781 0.40625 -1.0625 0.375 -1.0625 C 0.351562 -1.0625 0.335938 -1.050781 0.328125 -1.03125 C 0.316406 -1.019531 0.3125 -1.003906 0.3125 -0.984375 C 0.3125 -0.960938 0.316406 -0.941406 0.328125 -0.921875 C 0.335938 -0.910156 0.351562 -0.90625 0.375 -0.90625 C 0.40625 -0.90625 0.425781 -0.910156 0.4375 -0.921875 C 0.445312 -0.941406 0.453125 -0.960938 0.453125 -0.984375 C 0.453125 -1.003906 0.445312 -1.019531 0.4375 -1.03125 Z M 0.4375 -1.03125 "/></g></g></g><g fill="#ffffff" fill-opacity="1"><g transform="translate(3.660031, 374.366658)"><g><path d="M 1.03125 -1.203125 C 1.0625 -1.203125 1.09375 -1.191406 1.125 -1.171875 C 1.15625 -1.160156 1.1875 -1.132812 1.21875 -1.09375 C 1.25 -1.0625 1.265625 -1.019531 1.265625 -0.96875 C 1.265625 -0.945312 1.257812 -0.925781 1.25 -0.90625 C 1.25 -0.882812 1.242188 -0.867188 1.234375 -0.859375 C 1.234375 -0.847656 1.226562 -0.835938 1.21875 -0.828125 C 1.21875 -0.816406 1.210938 -0.804688 1.203125 -0.796875 C 1.191406 -0.796875 1.179688 -0.789062 1.171875 -0.78125 L 1.15625 -0.765625 C 1.175781 -0.765625 1.195312 -0.75 1.21875 -0.71875 C 1.25 -0.675781 1.265625 -0.625 1.265625 -0.5625 L 1.265625 0 L 1.03125 0 L 1.03125 -0.59375 C 1.03125 -0.632812 1.007812 -0.65625 0.96875 -0.65625 C 0.945312 -0.65625 0.925781 -0.644531 0.90625 -0.625 C 0.875 -0.601562 0.816406 -0.523438 0.734375 -0.390625 C 0.703125 -0.335938 0.675781 -0.289062 0.65625 -0.25 C 0.632812 -0.21875 0.613281 -0.179688 0.59375 -0.140625 C 0.570312 -0.0976562 0.554688 -0.0507812 0.546875 0 L 0.3125 0 L 0.3125 -0.765625 L 0.28125 -0.765625 C 0.226562 -0.765625 0.175781 -0.78125 0.125 -0.8125 C 0.0820312 -0.851562 0.0625 -0.90625 0.0625 -0.96875 C 0.0625 -1.039062 0.0820312 -1.097656 0.125 -1.140625 C 0.175781 -1.179688 0.226562 -1.203125 0.28125 -1.203125 C 0.332031 -1.203125 0.378906 -1.191406 0.421875 -1.171875 C 0.460938 -1.148438 0.488281 -1.125 0.5 -1.09375 C 0.519531 -1.0625 0.53125 -1.03125 0.53125 -1 C 0.539062 -0.976562 0.546875 -0.953125 0.546875 -0.921875 L 0.546875 -0.453125 C 0.585938 -0.535156 0.632812 -0.597656 0.6875 -0.640625 C 0.707031 -0.679688 0.726562 -0.710938 0.75 -0.734375 C 0.78125 -0.765625 0.804688 -0.78125 0.828125 -0.78125 L 0.84375 -0.796875 C 0.84375 -0.796875 0.832031 -0.8125 0.8125 -0.84375 C 0.789062 -0.875 0.78125 -0.910156 0.78125 -0.953125 C 0.78125 -1.023438 0.800781 -1.082031 0.84375 -1.125 C 0.882812 -1.175781 0.945312 -1.203125 1.03125 -1.203125 Z M 0.359375 -0.96875 C 0.359375 -1.019531 0.332031 -1.046875 0.28125 -1.046875 C 0.257812 -1.046875 0.238281 -1.039062 0.21875 -1.03125 C 0.207031 -1.019531 0.203125 -1 0.203125 -0.96875 C 0.203125 -0.945312 0.207031 -0.925781 0.21875 -0.90625 C 0.238281 -0.894531 0.257812 -0.890625 0.28125 -0.890625 C 0.3125 -0.890625 0.332031 -0.894531 0.34375 -0.90625 C 0.351562 -0.925781 0.359375 -0.945312 0.359375 -0.96875 Z M 1.09375 -1.015625 C 1.082031 -1.035156 1.0625 -1.046875 1.03125 -1.046875 C 1 -1.046875 0.972656 -1.035156 0.953125 -1.015625 C 0.941406 -1.003906 0.9375 -0.984375 0.9375 -0.953125 C 0.9375 -0.929688 0.941406 -0.910156 0.953125 -0.890625 C 0.972656 -0.878906 1 -0.875 1.03125 -0.875 C 1.0625 -0.875 1.082031 -0.878906 1.09375 -0.890625 C 1.113281 -0.910156 1.125 -0.929688 1.125 -0.953125 C 1.125 -0.984375 1.113281 -1.003906 1.09375 -1.015625 Z M 1.09375 -1.015625 "/></g></g></g><g fill="#ffffff" fill-opacity="1"><g transform="translate(5.090041, 374.366658)"><g><path d="M -0.46875 -1.515625 C -0.394531 -1.515625 -0.328125 -1.523438 -0.265625 -1.546875 C -0.203125 -1.566406 -0.148438 -1.59375 -0.109375 -1.625 C -0.078125 -1.65625 -0.046875 -1.6875 -0.015625 -1.71875 C 0.015625 -1.75 0.0351562 -1.773438 0.046875 -1.796875 L 0.0625 -1.828125 L 0.0625 -1.578125 C 0.0625 -1.566406 0.046875 -1.546875 0.015625 -1.515625 C -0.015625 -1.492188 -0.046875 -1.472656 -0.078125 -1.453125 C -0.109375 -1.441406 -0.15625 -1.425781 -0.21875 -1.40625 C -0.28125 -1.375 -0.359375 -1.359375 -0.453125 -1.359375 C -0.566406 -1.359375 -0.664062 -1.378906 -0.75 -1.421875 C -0.800781 -1.441406 -0.835938 -1.472656 -0.859375 -1.515625 C -0.890625 -1.554688 -0.90625 -1.597656 -0.90625 -1.640625 C -0.90625 -1.703125 -0.882812 -1.753906 -0.84375 -1.796875 C -0.8125 -1.835938 -0.765625 -1.859375 -0.703125 -1.859375 C -0.640625 -1.859375 -0.582031 -1.835938 -0.53125 -1.796875 C -0.488281 -1.765625 -0.46875 -1.71875 -0.46875 -1.65625 C -0.46875 -1.625 -0.472656 -1.597656 -0.484375 -1.578125 C -0.492188 -1.554688 -0.503906 -1.539062 -0.515625 -1.53125 L -0.53125 -1.515625 L -0.515625 -1.515625 C -0.515625 -1.515625 -0.507812 -1.515625 -0.5 -1.515625 C -0.488281 -1.515625 -0.476562 -1.515625 -0.46875 -1.515625 Z M -0.796875 -1.65625 C -0.796875 -1.625 -0.785156 -1.597656 -0.765625 -1.578125 C -0.742188 -1.566406 -0.722656 -1.5625 -0.703125 -1.5625 C -0.671875 -1.5625 -0.644531 -1.566406 -0.625 -1.578125 C -0.613281 -1.597656 -0.609375 -1.625 -0.609375 -1.65625 C -0.609375 -1.675781 -0.613281 -1.695312 -0.625 -1.71875 C -0.644531 -1.738281 -0.664062 -1.75 -0.6875 -1.75 C -0.71875 -1.75 -0.742188 -1.738281 -0.765625 -1.71875 C -0.785156 -1.707031 -0.796875 -1.6875 -0.796875 -1.65625 Z M -0.796875 -1.65625 "/></g></g></g><g fill="#ffffff" fill-opacity="1"><g transform="translate(5.090041, 374.366658)"><g><path d="M 0.046875 -0.921875 C 0.046875 -0.929688 0.0507812 -0.945312 0.0625 -0.96875 C 0.0703125 -0.988281 0.0859375 -1.007812 0.109375 -1.03125 C 0.128906 -1.0625 0.15625 -1.085938 0.1875 -1.109375 C 0.226562 -1.128906 0.273438 -1.148438 0.328125 -1.171875 C 0.390625 -1.191406 0.457031 -1.203125 0.53125 -1.203125 C 0.707031 -1.203125 0.832031 -1.164062 0.90625 -1.09375 C 0.988281 -1.03125 1.03125 -0.921875 1.03125 -0.765625 L 1.03125 -0.265625 C 1.03125 -0.191406 1.007812 -0.128906 0.96875 -0.078125 C 0.925781 -0.0234375 0.867188 0 0.796875 0 C 0.703125 0 0.632812 -0.0195312 0.59375 -0.0625 C 0.5625 -0.101562 0.546875 -0.15625 0.546875 -0.21875 C 0.546875 -0.28125 0.566406 -0.328125 0.609375 -0.359375 C 0.648438 -0.398438 0.703125 -0.421875 0.765625 -0.421875 L 0.796875 -0.421875 L 0.796875 -0.734375 C 0.796875 -0.773438 0.789062 -0.8125 0.78125 -0.84375 C 0.78125 -0.875 0.769531 -0.90625 0.75 -0.9375 C 0.738281 -0.96875 0.710938 -0.988281 0.671875 -1 C 0.640625 -1.019531 0.597656 -1.03125 0.546875 -1.03125 C 0.453125 -1.03125 0.378906 -1.015625 0.328125 -0.984375 C 0.285156 -0.953125 0.257812 -0.90625 0.25 -0.84375 Z M 0.8125 -0.25 C 0.800781 -0.269531 0.785156 -0.28125 0.765625 -0.28125 C 0.742188 -0.28125 0.722656 -0.269531 0.703125 -0.25 C 0.691406 -0.238281 0.6875 -0.222656 0.6875 -0.203125 C 0.6875 -0.179688 0.691406 -0.160156 0.703125 -0.140625 C 0.722656 -0.128906 0.742188 -0.125 0.765625 -0.125 C 0.785156 -0.125 0.800781 -0.128906 0.8125 -0.140625 C 0.832031 -0.160156 0.84375 -0.179688 0.84375 -0.203125 C 0.84375 -0.222656 0.832031 -0.238281 0.8125 -0.25 Z M 0.8125 -0.25 "/></g></g></g><g fill="#ffffff" fill-opacity="1"><g transform="translate(6.276049, 374.366658)"><g><path d="M 0.65625 -0.21875 C 0.65625 -0.144531 0.632812 -0.0859375 0.59375 -0.046875 C 0.550781 -0.015625 0.492188 0 0.421875 0 C 0.335938 0 0.273438 -0.0234375 0.234375 -0.078125 C 0.203125 -0.128906 0.1875 -0.191406 0.1875 -0.265625 L 0.1875 -1.1875 L 0.421875 -1.1875 L 0.421875 -0.421875 C 0.429688 -0.421875 0.441406 -0.421875 0.453125 -0.421875 C 0.492188 -0.421875 0.535156 -0.40625 0.578125 -0.375 C 0.628906 -0.34375 0.65625 -0.289062 0.65625 -0.21875 Z M 0.5 -0.25 C 0.488281 -0.269531 0.46875 -0.28125 0.4375 -0.28125 C 0.414062 -0.28125 0.394531 -0.269531 0.375 -0.25 C 0.363281 -0.238281 0.359375 -0.222656 0.359375 -0.203125 C 0.359375 -0.179688 0.363281 -0.160156 0.375 -0.140625 C 0.394531 -0.128906 0.414062 -0.125 0.4375 -0.125 C 0.46875 -0.125 0.488281 -0.128906 0.5 -0.140625 C 0.507812 -0.160156 0.515625 -0.179688 0.515625 -0.203125 C 0.515625 -0.222656 0.507812 -0.238281 0.5 -0.25 Z M 0.5 -0.25 "/></g></g></g><g fill="#ffffff" fill-opacity="1"><g transform="translate(6.996055, 374.366658)"><g><path d="M 0.078125 -0.859375 C 0.078125 -0.890625 0.0820312 -0.921875 0.09375 -0.953125 C 0.113281 -0.992188 0.140625 -1.03125 0.171875 -1.0625 C 0.203125 -1.101562 0.242188 -1.132812 0.296875 -1.15625 C 0.347656 -1.1875 0.410156 -1.203125 0.484375 -1.203125 C 0.535156 -1.203125 0.597656 -1.1875 0.671875 -1.15625 C 0.753906 -1.132812 0.8125 -1.125 0.84375 -1.125 C 0.875 -1.125 0.898438 -1.128906 0.921875 -1.140625 C 0.941406 -1.148438 0.957031 -1.160156 0.96875 -1.171875 L 0.984375 -1.203125 L 1.0625 -1.03125 C 1.0625 -1.03125 1.054688 -1.023438 1.046875 -1.015625 C 1.035156 -1.015625 1.019531 -1.007812 1 -1 C 0.988281 -0.988281 0.972656 -0.976562 0.953125 -0.96875 C 0.941406 -0.96875 0.921875 -0.96875 0.890625 -0.96875 C 0.847656 -0.96875 0.78125 -0.976562 0.6875 -1 C 0.59375 -1.03125 0.519531 -1.046875 0.46875 -1.046875 C 0.445312 -1.046875 0.425781 -1.039062 0.40625 -1.03125 C 0.382812 -1.03125 0.367188 -1.023438 0.359375 -1.015625 C 0.347656 -1.015625 0.335938 -1.003906 0.328125 -0.984375 C 0.328125 -0.972656 0.328125 -0.96875 0.328125 -0.96875 C 0.328125 -0.96875 0.34375 -0.96875 0.375 -0.96875 C 0.40625 -0.96875 0.445312 -0.957031 0.5 -0.9375 C 0.5625 -0.925781 0.613281 -0.910156 0.65625 -0.890625 C 0.6875 -0.878906 0.707031 -0.867188 0.71875 -0.859375 C 0.738281 -0.859375 0.765625 -0.847656 0.796875 -0.828125 C 0.828125 -0.804688 0.847656 -0.789062 0.859375 -0.78125 C 0.878906 -0.769531 0.894531 -0.75 0.90625 -0.71875 C 0.914062 -0.695312 0.921875 -0.675781 0.921875 -0.65625 L 0.921875 -0.265625 C 0.921875 -0.191406 0.898438 -0.128906 0.859375 -0.078125 C 0.816406 -0.0234375 0.75 0 0.65625 0 C 0.59375 0 0.539062 -0.015625 0.5 -0.046875 C 0.457031 -0.0859375 0.4375 -0.140625 0.4375 -0.203125 C 0.4375 -0.265625 0.457031 -0.316406 0.5 -0.359375 C 0.539062 -0.398438 0.59375 -0.421875 0.65625 -0.421875 L 0.6875 -0.421875 L 0.6875 -0.59375 C 0.6875 -0.613281 0.6875 -0.628906 0.6875 -0.640625 C 0.6875 -0.660156 0.675781 -0.675781 0.65625 -0.6875 C 0.644531 -0.707031 0.628906 -0.722656 0.609375 -0.734375 C 0.566406 -0.765625 0.5 -0.789062 0.40625 -0.8125 C 0.3125 -0.84375 0.21875 -0.859375 0.125 -0.859375 C 0.113281 -0.859375 0.101562 -0.859375 0.09375 -0.859375 Z M 0.71875 -0.25 C 0.707031 -0.269531 0.6875 -0.28125 0.65625 -0.28125 C 0.632812 -0.28125 0.617188 -0.269531 0.609375 -0.25 C 0.597656 -0.238281 0.59375 -0.222656 0.59375 -0.203125 C 0.59375 -0.179688 0.597656 -0.160156 0.609375 -0.140625 C 0.617188 -0.128906 0.632812 -0.125 0.65625 -0.125 C 0.6875 -0.125 0.707031 -0.128906 0.71875 -0.140625 C 0.726562 -0.160156 0.734375 -0.179688 0.734375 -0.203125 C 0.734375 -0.222656 0.726562 -0.238281 0.71875 -0.25 Z M 0.71875 -0.25 "/></g></g></g><g fill="#ffffff" fill-opacity="1"><g transform="translate(8.098062, 374.366658)"><g><path d="M -0.171875 -1.265625 C -0.222656 -1.304688 -0.300781 -1.34375 -0.40625 -1.375 C -0.519531 -1.40625 -0.644531 -1.421875 -0.78125 -1.421875 C -0.820312 -1.421875 -0.863281 -1.414062 -0.90625 -1.40625 C -0.957031 -1.40625 -0.992188 -1.398438 -1.015625 -1.390625 C -1.046875 -1.390625 -1.070312 -1.382812 -1.09375 -1.375 C -1.125 -1.363281 -1.144531 -1.359375 -1.15625 -1.359375 L -1.171875 -1.359375 C -1.171875 -1.390625 -1.164062 -1.421875 -1.15625 -1.453125 C -1.144531 -1.492188 -1.125 -1.535156 -1.09375 -1.578125 C -1.070312 -1.617188 -1.039062 -1.65625 -1 -1.6875 C -0.96875 -1.726562 -0.921875 -1.757812 -0.859375 -1.78125 C -0.804688 -1.800781 -0.742188 -1.8125 -0.671875 -1.8125 L -0.671875 -1.90625 L -0.484375 -1.90625 L -0.484375 -1.78125 C -0.460938 -1.78125 -0.441406 -1.773438 -0.421875 -1.765625 C -0.410156 -1.753906 -0.40625 -1.742188 -0.40625 -1.734375 L -0.390625 -1.71875 L -0.390625 -1.90625 L -0.1875 -1.90625 L -0.1875 -1.375 Z M -0.390625 -1.484375 C -0.390625 -1.503906 -0.394531 -1.519531 -0.40625 -1.53125 C -0.425781 -1.550781 -0.445312 -1.570312 -0.46875 -1.59375 C -0.488281 -1.625 -0.515625 -1.644531 -0.546875 -1.65625 C -0.585938 -1.675781 -0.632812 -1.6875 -0.6875 -1.6875 C -0.738281 -1.6875 -0.78125 -1.675781 -0.8125 -1.65625 C -0.851562 -1.632812 -0.878906 -1.613281 -0.890625 -1.59375 C -0.910156 -1.582031 -0.925781 -1.566406 -0.9375 -1.546875 L -0.9375 -1.515625 C -0.882812 -1.535156 -0.816406 -1.546875 -0.734375 -1.546875 C -0.671875 -1.546875 -0.609375 -1.539062 -0.546875 -1.53125 C -0.492188 -1.519531 -0.457031 -1.507812 -0.4375 -1.5 Z M -0.390625 -1.484375 "/></g></g></g><g fill="#ffffff" fill-opacity="1"><g transform="translate(7.956062, 374.366658)"><g><path d="M -0.40625 -1.984375 L -0.40625 -2.390625 L -0.1875 -2.390625 L -0.1875 -1.984375 Z M -0.40625 -1.984375 "/></g></g></g><g fill="#ffffff" fill-opacity="1"><g transform="translate(8.098062, 374.366658)"><g><path d="M 0.125 -0.96875 C 0.125 -0.96875 0.128906 -0.972656 0.140625 -0.984375 C 0.140625 -0.992188 0.144531 -1.003906 0.15625 -1.015625 C 0.164062 -1.023438 0.175781 -1.039062 0.1875 -1.0625 C 0.207031 -1.082031 0.226562 -1.097656 0.25 -1.109375 C 0.28125 -1.128906 0.3125 -1.144531 0.34375 -1.15625 C 0.375 -1.164062 0.414062 -1.175781 0.46875 -1.1875 C 0.519531 -1.195312 0.578125 -1.203125 0.640625 -1.203125 C 0.722656 -1.203125 0.796875 -1.191406 0.859375 -1.171875 C 0.921875 -1.148438 0.96875 -1.128906 1 -1.109375 C 1.039062 -1.085938 1.070312 -1.054688 1.09375 -1.015625 C 1.125 -0.984375 1.140625 -0.953125 1.140625 -0.921875 C 1.148438 -0.898438 1.15625 -0.875 1.15625 -0.84375 L 1.15625 -0.265625 C 1.15625 -0.0859375 1.0625 0 0.875 0 L 0.46875 0 C 0.414062 0 0.367188 -0.00390625 0.328125 -0.015625 C 0.285156 -0.0351562 0.253906 -0.0625 0.234375 -0.09375 C 0.222656 -0.125 0.210938 -0.144531 0.203125 -0.15625 C 0.203125 -0.175781 0.203125 -0.195312 0.203125 -0.21875 L 0.203125 -0.546875 C 0.203125 -0.617188 0.222656 -0.679688 0.265625 -0.734375 C 0.304688 -0.785156 0.375 -0.8125 0.46875 -0.8125 C 0.53125 -0.8125 0.582031 -0.789062 0.625 -0.75 C 0.664062 -0.707031 0.6875 -0.65625 0.6875 -0.59375 C 0.6875 -0.539062 0.664062 -0.492188 0.625 -0.453125 C 0.582031 -0.410156 0.53125 -0.390625 0.46875 -0.390625 L 0.4375 -0.390625 L 0.4375 -0.25 C 0.4375 -0.21875 0.441406 -0.191406 0.453125 -0.171875 C 0.472656 -0.160156 0.503906 -0.15625 0.546875 -0.15625 L 0.796875 -0.15625 C 0.847656 -0.15625 0.878906 -0.164062 0.890625 -0.1875 C 0.910156 -0.207031 0.921875 -0.238281 0.921875 -0.28125 L 0.921875 -0.8125 C 0.921875 -0.882812 0.894531 -0.9375 0.84375 -0.96875 C 0.800781 -1.007812 0.722656 -1.03125 0.609375 -1.03125 C 0.566406 -1.03125 0.523438 -1.023438 0.484375 -1.015625 C 0.441406 -1.003906 0.410156 -0.992188 0.390625 -0.984375 C 0.367188 -0.972656 0.347656 -0.957031 0.328125 -0.9375 C 0.304688 -0.914062 0.296875 -0.898438 0.296875 -0.890625 C 0.296875 -0.890625 0.289062 -0.878906 0.28125 -0.859375 Z M 0.53125 -0.65625 C 0.519531 -0.675781 0.5 -0.6875 0.46875 -0.6875 C 0.445312 -0.6875 0.425781 -0.675781 0.40625 -0.65625 C 0.394531 -0.644531 0.390625 -0.628906 0.390625 -0.609375 C 0.390625 -0.585938 0.394531 -0.566406 0.40625 -0.546875 C 0.425781 -0.535156 0.445312 -0.53125 0.46875 -0.53125 C 0.5 -0.53125 0.519531 -0.535156 0.53125 -0.546875 C 0.539062 -0.566406 0.546875 -0.585938 0.546875 -0.609375 C 0.546875 -0.628906 0.539062 -0.644531 0.53125 -0.65625 Z M 0.53125 -0.65625 "/></g></g></g><g fill="#ffffff" fill-opacity="1"><g transform="translate(9.436073, 374.366658)"><g><path d="M 0.359375 -0.96875 C 0.359375 -1.039062 0.378906 -1.097656 0.421875 -1.140625 C 0.460938 -1.179688 0.515625 -1.203125 0.578125 -1.203125 C 0.617188 -1.203125 0.65625 -1.191406 0.6875 -1.171875 C 0.71875 -1.160156 0.742188 -1.144531 0.765625 -1.125 C 0.785156 -1.101562 0.800781 -1.078125 0.8125 -1.046875 C 0.820312 -1.023438 0.828125 -1.003906 0.828125 -0.984375 C 0.835938 -0.960938 0.84375 -0.941406 0.84375 -0.921875 L 0.84375 -0.296875 C 0.84375 -0.242188 0.832031 -0.195312 0.8125 -0.15625 C 0.789062 -0.113281 0.765625 -0.078125 0.734375 -0.046875 C 0.703125 -0.0234375 0.664062 -0.0078125 0.625 0 C 0.59375 0 0.5625 0 0.53125 0 C 0.394531 0 0.300781 -0.046875 0.25 -0.140625 C 0.238281 -0.171875 0.222656 -0.21875 0.203125 -0.28125 C 0.191406 -0.34375 0.175781 -0.390625 0.15625 -0.421875 C 0.132812 -0.453125 0.113281 -0.46875 0.09375 -0.46875 C 0.0703125 -0.476562 0.0507812 -0.484375 0.03125 -0.484375 L 0.03125 -0.6875 L 0.046875 -0.6875 C 0.0546875 -0.6875 0.0664062 -0.6875 0.078125 -0.6875 C 0.160156 -0.6875 0.222656 -0.660156 0.265625 -0.609375 C 0.285156 -0.578125 0.304688 -0.535156 0.328125 -0.484375 C 0.347656 -0.429688 0.363281 -0.382812 0.375 -0.34375 C 0.382812 -0.300781 0.398438 -0.257812 0.421875 -0.21875 C 0.453125 -0.1875 0.484375 -0.171875 0.515625 -0.171875 C 0.546875 -0.171875 0.566406 -0.179688 0.578125 -0.203125 C 0.585938 -0.222656 0.59375 -0.253906 0.59375 -0.296875 L 0.59375 -0.765625 C 0.59375 -0.753906 0.585938 -0.75 0.578125 -0.75 C 0.515625 -0.75 0.460938 -0.769531 0.421875 -0.8125 C 0.378906 -0.851562 0.359375 -0.90625 0.359375 -0.96875 Z M 0.625 -0.90625 C 0.644531 -0.925781 0.65625 -0.945312 0.65625 -0.96875 C 0.65625 -1 0.644531 -1.019531 0.625 -1.03125 C 0.613281 -1.039062 0.59375 -1.046875 0.5625 -1.046875 C 0.539062 -1.046875 0.519531 -1.039062 0.5 -1.03125 C 0.488281 -1.019531 0.484375 -1 0.484375 -0.96875 C 0.484375 -0.945312 0.488281 -0.925781 0.5 -0.90625 C 0.519531 -0.894531 0.539062 -0.890625 0.5625 -0.890625 C 0.59375 -0.890625 0.613281 -0.894531 0.625 -0.90625 Z M 0.625 -0.90625 "/></g></g></g></svg>